<svg width="1280" height="640" viewBox="0 0 1280 640" fill="none" xmlns="http://www.w3.org/2000/svg">
<g clip-path="url(#clip0_87_4)">
<rect width="1280" height="640" fill="white"/>
<path fill-rule="evenodd" clip-rule="evenodd" d="M892 86.7832V79.7832C892.004 79.5236 891.95 79.2663 891.843 79.0297C891.736 78.7932 891.578 78.5832 891.38 78.4147C891.182 78.2467 890.949 78.125 890.698 78.0584C890.447 77.9918 890.185 77.982 889.93 78.0297L868.991 81.5175C868.571 81.581 868.189 81.7946 867.915 82.1186C867.64 82.4427 867.493 82.8553 867.5 83.2797V99.9379C866.165 99.1674 864.614 98.8588 863.086 99.0599C861.559 99.2611 860.14 99.9607 859.05 101.05C857.961 102.14 857.261 103.559 857.06 105.086C856.859 106.614 857.167 108.166 857.938 109.5C858.708 110.835 859.898 111.878 861.321 112.467C862.745 113.057 864.323 113.16 865.812 112.761C867.3 112.363 868.615 111.484 869.554 110.261C870.492 109.039 871 107.541 871 106V91.7304L888.5 88.8149V96.4361C887.165 95.6657 885.614 95.3571 884.086 95.5582C882.559 95.7593 881.14 96.4588 880.05 97.5483C878.961 98.6378 878.261 100.056 878.06 101.584C877.859 103.112 878.167 104.663 878.937 105.998C879.708 107.332 880.897 108.375 882.32 108.965C883.744 109.555 885.322 109.659 886.81 109.26C888.299 108.861 889.614 107.983 890.552 106.761C891.491 105.538 892 104.041 892 102.5V86.7832Z" fill="black"/>
<path d="M231.077 468.788V395.25H248.678L268.224 444.276L289.281 395.25H305.479V468.788H290.145V423.758L272.867 465.117H264.013L246.411 424.19V468.788H231.077ZM336.427 468.788H321.632V418.575H336.427V468.788ZM328.975 410.476C326.492 410.476 324.548 409.72 322.928 408.1C321.308 406.48 320.553 404.537 320.553 402.053C320.553 399.569 321.416 397.517 323.036 395.898C324.656 394.278 326.6 393.522 329.083 393.522C331.459 393.522 333.511 394.278 335.131 395.898C336.751 397.517 337.506 399.569 337.506 401.945C337.506 404.429 336.751 406.372 335.131 407.992C333.511 409.612 331.459 410.476 328.975 410.476ZM372.012 470.408C363.697 470.408 357.434 468.033 353.222 463.281C349.011 458.638 346.851 452.159 346.851 443.844C346.851 435.637 348.903 429.049 352.898 424.19C356.894 419.331 363.049 416.955 371.472 416.955C375.035 416.955 378.275 417.387 381.19 418.359C384.106 419.331 387.022 421.166 390.045 423.758L382.27 433.909C380.435 432.289 378.815 431.101 377.195 430.345C375.575 429.697 374.063 429.373 372.552 429.373C368.772 429.373 366.072 430.669 364.345 433.369C362.509 436.069 361.645 439.524 361.645 443.736C361.645 448.595 362.617 452.159 364.561 454.426C366.396 456.802 369.096 457.99 372.552 457.99C374.603 457.99 376.439 457.558 378.167 456.802C379.787 456.046 381.406 454.75 383.026 452.914L391.341 461.661C388.858 464.793 385.942 466.953 382.81 468.356C379.679 469.76 376.007 470.408 372.012 470.408ZM414.559 468.788H399.657V418.575H413.047L413.155 426.674C414.559 423.974 416.719 421.922 419.634 420.303C422.55 418.791 425.682 418.035 429.245 418.035H431.405V432.073H427.193C423.414 432.073 420.39 433.369 418.123 435.961C415.747 438.66 414.559 442.224 414.559 446.651V468.788ZM479.137 463.389C474.926 468.033 468.879 470.408 461.104 470.408C453.329 470.408 447.281 468.033 443.07 463.389C438.858 458.746 436.699 452.159 436.699 443.628C436.699 435.205 438.858 428.618 443.07 423.974C447.281 419.331 453.329 416.955 461.104 416.955C468.879 416.955 474.926 419.331 479.137 423.974C483.349 428.618 485.508 435.205 485.508 443.628C485.508 452.159 483.349 458.746 479.137 463.389ZM453.976 454.318C455.596 456.802 457.972 457.99 461.104 457.99C464.235 457.99 466.611 456.802 468.231 454.318C469.85 451.835 470.714 448.271 470.714 443.628C470.714 439.2 469.85 435.745 468.231 433.153C466.611 430.669 464.235 429.373 461.104 429.373C457.972 429.373 455.596 430.669 453.976 433.153C452.357 435.745 451.493 439.2 451.493 443.628C451.493 448.271 452.357 451.835 453.976 454.318ZM527.254 470.516C516.347 470.516 508.032 467.169 502.309 460.365C496.586 453.67 493.67 444.491 493.67 432.721C493.67 424.73 494.966 417.819 497.665 411.88C500.257 406.048 504.145 401.513 509.22 398.273C514.295 395.142 520.558 393.522 527.794 393.522C532.221 393.522 536.54 394.062 540.644 395.034C544.639 396.114 548.959 397.949 553.386 400.541L545.719 412.528C542.156 410.692 539.024 409.504 536.108 408.856C533.193 408.208 530.493 407.884 527.902 407.884C521.854 407.884 517.319 409.936 514.295 414.147C511.164 418.359 509.652 424.298 509.652 432.181C509.652 440.064 511.164 446.003 514.079 449.999C516.995 453.994 521.638 456.046 528.225 456.046C529.845 456.046 531.573 455.938 533.301 455.722C535.029 455.614 536.972 455.29 539.024 454.75V440.28H526.93L531.141 427.43H553.386V464.253C551.443 465.657 549.067 466.845 546.151 467.817C543.236 468.788 540.212 469.436 536.972 469.868C533.625 470.3 530.385 470.516 527.254 470.516ZM613.512 468.788H597.746V395.25H622.258C631.005 395.25 637.916 397.193 642.884 400.973C647.851 404.753 650.335 410.368 650.335 417.711C650.335 422.786 649.255 426.998 646.987 430.453C644.72 433.909 641.372 436.501 637.161 438.228L653.898 468.788H637.484L622.474 440.82H622.15H613.512V468.788ZM613.512 408.316V427.754H621.934C630.249 427.754 634.353 424.73 634.353 418.575C634.353 411.772 630.249 408.316 621.934 408.316H613.512ZM680.792 453.778H712V468.788H665.026V395.25H712V410.26H680.792V424.298H708.22L703.793 438.228H680.792V453.778Z" fill="black"/>
<path fill-rule="evenodd" clip-rule="evenodd" d="M72.9395 448.746C63.6868 439.493 63.6868 424.492 72.9395 415.239L109.239 378.94C118.492 369.687 133.493 369.687 142.746 378.94L179.045 415.239C188.298 424.492 188.298 439.493 179.045 448.746L157.467 470.324C149.244 462.068 137.864 456.958 125.291 456.958C113.074 456.958 101.985 461.782 93.8225 469.629L72.9395 448.746ZM125.291 460.907C136.774 460.907 147.166 465.575 154.675 473.117L142.746 485.045C133.493 494.298 118.492 494.298 109.239 485.045L96.6154 472.422C104.062 465.289 114.165 460.907 125.291 460.907ZM143.061 431.291C143.061 441.105 135.105 449.061 125.291 449.061C115.477 449.061 107.521 441.105 107.521 431.291C107.521 421.477 115.477 413.521 125.291 413.521C135.105 413.521 143.061 421.477 143.061 431.291Z" fill="#FF0000"/>
<circle cx="1014.5" cy="698.5" r="220.5" stroke="black" stroke-width="4"/>
<line x1="791.012" y1="476" x2="1289.04" y2="479" stroke="black" stroke-width="4"/>
<circle cx="1237" cy="430" r="15" fill="black"/>
<rect x="762" y="-104" width="597" height="534" rx="85" stroke="black" stroke-width="4"/>
<rect x="747" y="301" width="30" height="30" fill="black"/>
<line x1="-55.0049" y1="316" x2="767.005" y2="316" stroke="black" stroke-width="4"/>
<path d="M162.162 110.724C158.766 100.228 157.796 89.8245 158.043 82.7534C152.393 80.8883 141.299 80.4659 142.115 93.6978C142.931 106.93 155.82 110.562 162.162 110.724Z" fill="white"/>
<path d="M176.071 62.7165C160.177 74.2122 172.843 85.825 158.043 82.7534C157.796 89.8245 158.766 100.228 162.162 110.724C167.023 125.75 176.855 140.967 195.204 146.872C198.796 148.028 202.14 148.448 205.251 148.25C229.138 146.73 234.416 93.6979 234.416 93.6979C234.416 93.6979 234.416 73.276 230.189 62.7164L176.071 62.7165Z" fill="white"/>
<path d="M195.204 146.872C176.855 140.967 167.023 125.75 162.162 110.724C162.893 119.743 163.634 134.199 163.231 145.847L186.902 157.584L201.315 209.062L206.353 166.108L205.802 157.179L205.251 148.25C202.14 148.448 198.796 148.028 195.204 146.872Z" fill="white"/>
<path d="M246.986 185.824L240.28 254.422C244.269 255.927 244.914 266.703 271.032 280.766C297.15 294.83 309.682 280.766 318.158 262.559L348.342 192.165C351.371 178.623 357.394 157.036 339.513 152.96C336.884 152.361 331.625 152.563 328.149 152.96C294.26 156.828 298.19 168.692 323.266 180.429L318.158 191.207L287.094 243.643L246.986 185.824Z" fill="white"/>
<path d="M88.9513 215.315C82.8233 231.884 82.4103 262.11 82.4103 262.11C82.4103 262.11 88.5303 344.101 131.6 332.561L206.353 318.399C213.842 329.079 231.113 343.319 240.28 339.25C251.738 334.165 246.986 313.314 234.416 298.385C230.571 293.819 219.769 291.747 206.353 291.157C184.681 290.203 156.187 293.115 139.165 295.619L129.028 257.787L109.615 185.824C101.025 192.563 93.9669 201.754 88.9513 215.315Z" fill="white"/>
<path d="M323.262 180.43C298.187 168.693 294.256 156.829 328.145 152.961C331.621 152.564 336.88 152.361 339.51 152.961L346.699 137.323C349.01 132.297 346.881 126.347 341.907 123.927L324.451 115.437C319.193 112.879 312.867 115.271 310.615 120.666L290.882 167.958C288.768 173.024 291.055 178.853 296.049 181.13L318.154 191.208L323.262 180.43Z" fill="#303134"/>
<path fill-rule="evenodd" clip-rule="evenodd" d="M199.026 86.4606C199.959 87.0864 200.208 88.3501 199.583 89.2831L195.059 96.0279C194.433 96.9609 193.169 97.21 192.236 96.5842C191.303 95.9583 191.054 94.6947 191.68 93.7616L196.204 87.0169C196.83 86.0838 198.093 85.8348 199.026 86.4606ZM225.473 85.3776C226.497 85.8411 226.951 87.0466 226.487 88.0699L223.742 94.1297C223.278 95.1531 222.073 95.6068 221.049 95.1432C220.026 94.6796 219.572 93.4742 220.036 92.4509L222.781 86.3911C223.245 85.3677 224.45 84.914 225.473 85.3776ZM207.452 109.645C206.945 108.643 207.346 107.419 208.348 106.911L214.882 103.604C215.884 103.097 217.108 103.498 217.616 104.5C218.123 105.503 217.722 106.726 216.719 107.234L210.186 110.541C209.183 111.049 207.959 110.647 207.452 109.645ZM197.148 119.188C198.193 118.777 199.374 119.29 199.786 120.336C200.658 122.551 201.952 124.42 203.479 125.282C204.2 125.688 204.992 125.885 205.908 125.791C206.846 125.695 208.038 125.28 209.5 124.257C210.42 123.613 211.688 123.837 212.333 124.758C212.977 125.679 212.752 126.947 211.832 127.591C209.951 128.907 208.111 129.655 206.322 129.838C204.512 130.023 202.883 129.616 201.481 128.825C198.766 127.294 197.015 124.403 196 121.826C195.589 120.781 196.103 119.6 197.148 119.188Z" fill="black"/>
<path d="M158.043 82.7534C172.843 85.825 160.177 74.2122 176.071 62.7165L230.189 62.7164L247.773 62.7164C258.183 39.9578 219.159 3.09541 176.071 40.4721C176.071 40.4721 183.655 17.4462 158.043 27.3693C132.431 37.2924 87.9695 69.7351 129.028 125.64C117.271 136.033 99.8352 160.864 124.149 177.044C125.927 176.21 127.744 175.421 129.599 174.667C144.331 168.675 157.209 166.153 159.734 164.004C161.931 162.134 162.921 154.824 163.231 145.847C163.634 134.199 162.893 119.743 162.162 110.724C155.82 110.562 142.931 106.93 142.115 93.6978C141.299 80.4659 152.393 80.8883 158.043 82.7534Z" fill="#FBBC04" fill-opacity="0.5"/>
<path fill-rule="evenodd" clip-rule="evenodd" d="M171.145 27.1976C168.875 26.5981 165.039 26.8408 158.778 29.2666C146.193 34.1425 129.167 44.4973 120.307 60.2589C115.903 68.0928 113.505 77.277 114.66 87.8761C115.818 98.4958 120.559 110.674 130.667 124.437C131.29 125.285 131.163 126.468 130.375 127.165C124.649 132.226 117.654 140.724 115.014 149.744C113.705 154.215 113.492 158.723 114.929 163.001C116.282 167.029 119.161 171.041 124.345 174.713C125.818 174.041 127.315 173.4 128.832 172.783C136.291 169.75 143.271 167.598 148.648 165.95L148.9 165.873C151.495 165.078 153.667 164.412 155.355 163.816C156.224 163.51 156.926 163.235 157.468 162.986C158.036 162.725 158.313 162.542 158.416 162.455C158.571 162.323 158.894 161.905 159.258 160.929C159.605 160.001 159.918 158.764 160.187 157.238C160.724 154.191 161.044 150.227 161.198 145.777C161.572 134.961 160.949 121.656 160.27 112.635C156.968 112.285 152.736 111.189 148.985 108.836C144.48 106.01 140.655 101.345 140.107 94.1523C140 93.8149 139.985 93.4663 140.051 93.137C139.94 89.8736 140.516 87.2244 141.694 85.1423C142.968 82.8907 144.849 81.4741 146.916 80.6692C150.871 79.129 155.526 79.8025 158.565 80.7847C160.282 81.1356 161.485 81.2493 162.33 81.214C163.178 81.1785 163.524 80.9987 163.666 80.8944C163.799 80.7975 163.966 80.6137 164.143 80.1149C164.334 79.5759 164.469 78.8752 164.641 77.8585C164.658 77.7574 164.675 77.6543 164.693 77.5492C165.016 75.6283 165.449 73.0473 166.797 70.2473C168.234 67.262 170.653 64.1251 174.878 61.0687C175.225 60.8178 175.642 60.6828 176.071 60.6828L246.41 60.6828C250.021 50.7642 243.803 37.6591 231.026 30.8386C218.036 23.9042 198.408 23.7889 177.404 42.0093C176.712 42.609 175.706 42.6731 174.944 42.1661C174.182 41.6594 173.853 40.7072 174.138 39.8385L174.139 39.8362L174.151 39.7982C174.161 39.7645 174.178 39.7106 174.199 39.6381C174.242 39.4929 174.305 39.274 174.377 38.9947C174.521 38.4343 174.702 37.6403 174.845 36.718C175.139 34.8245 175.238 32.6024 174.707 30.765C174.211 29.0487 173.21 27.7427 171.145 27.1976ZM179.092 35.3913C179.227 33.6073 179.172 31.5604 178.615 29.6351C177.806 26.8352 175.901 24.2453 172.184 23.264C168.673 22.3369 163.852 22.9373 157.308 25.473C144.281 30.5203 126.27 41.3483 116.761 58.2653C111.98 66.7706 109.36 76.7995 110.616 88.317C111.825 99.4123 116.616 111.761 126.316 125.364C120.548 130.805 113.83 139.307 111.109 148.602C109.629 153.66 109.308 159.044 111.072 164.296C112.566 168.744 115.505 172.948 120.225 176.706C116.041 178.856 112.069 181.313 108.359 184.224C99.4561 191.21 92.1814 200.718 87.0433 214.611C83.8789 223.167 82.2277 235.098 81.3567 244.744C80.9186 249.596 80.6736 253.925 80.5382 257.041C80.4704 258.599 80.4299 259.856 80.4064 260.724C80.3946 261.159 80.3871 261.496 80.3825 261.726L80.3776 261.989L80.3765 262.058L80.3762 262.081C80.3762 262.081 80.3761 262.083 82.4102 262.111L80.3761 262.083C80.3753 262.143 80.3771 262.202 80.3816 262.262L82.4102 262.111C80.3816 262.262 80.3816 262.262 80.3816 262.262L80.383 262.281L80.3868 262.33L80.4018 262.514C80.4152 262.675 80.4356 262.911 80.4639 263.216C80.5204 263.827 80.6086 264.716 80.736 265.84C80.9907 268.089 81.4027 271.282 82.0327 275.075C83.2907 282.649 85.4269 292.67 88.9417 302.358C92.4428 312.007 97.3852 321.535 104.371 327.924C111.453 334.4 120.591 337.593 132.052 334.547L205.461 320.64C209.389 325.922 215.363 331.802 221.537 336.034C224.838 338.296 228.279 340.145 231.567 341.156C234.833 342.159 238.186 342.406 241.105 341.11C248.157 337.98 249.739 330.165 248.363 322.165C247.644 317.985 246.101 313.505 243.891 309.093L242.471 259.845C243.327 261.059 244.402 262.541 245.804 264.199C249.912 269.055 256.811 275.42 270.068 282.558C283.509 289.796 293.927 290.018 302.179 285.554C310.245 281.191 315.729 272.599 320.002 263.418C320.011 263.399 320.02 263.38 320.028 263.361L350.212 192.968C350.261 192.852 350.3 192.733 350.327 192.61C350.491 191.878 350.665 191.116 350.846 190.328C352.298 183.981 354.127 175.985 353.801 168.92C353.616 164.909 352.735 160.991 350.546 157.761C348.701 155.036 346.016 152.934 342.351 151.658L348.551 138.172C351.324 132.142 348.769 125.001 342.801 122.098L325.345 113.607C319.035 110.539 311.444 113.408 308.742 119.883L289.008 167.175C286.472 173.253 289.216 180.248 295.209 182.98L315.254 192.119L286.959 239.881L248.658 184.665C248.502 184.44 248.302 184.249 248.07 184.103C242.717 180.731 237.555 177.783 232.728 175.245C227.093 172.281 221.912 169.874 217.412 167.998L207.791 156.392L207.399 150.039C213.235 149.004 217.879 145.195 221.518 140.299C225.563 134.856 228.545 127.844 230.728 121.025C232.919 114.183 234.344 107.408 235.222 102.357C235.662 99.8275 235.965 97.7219 236.159 96.2452C236.256 95.5067 236.326 94.925 236.372 94.5257C236.395 94.326 236.412 94.1719 236.423 94.0665L236.435 93.9455L236.439 93.9131L236.44 93.9014C236.44 93.9014 236.44 93.8999 234.416 93.6984L236.44 93.9014C236.447 93.8344 236.45 93.7657 236.45 93.6984L234.416 93.6984C236.45 93.6984 236.45 93.6984 236.45 93.6984L236.45 93.6803L236.45 93.6328L236.449 93.4527C236.448 93.2957 236.446 93.0661 236.442 92.7713C236.433 92.1817 236.417 91.3308 236.383 90.2779C236.316 88.1735 236.183 85.2556 235.915 82.0008C235.469 76.5721 234.637 70.0218 233.046 64.7512L247.773 64.7512C248.569 64.7512 249.292 64.287 249.623 63.5632C255.443 50.84 247.329 34.9296 232.942 27.2495C219.219 19.9238 199.616 19.7661 179.092 35.3913ZM228.774 64.7512L176.74 64.7512C173.356 67.3074 171.53 69.7938 170.463 72.0117C169.371 74.2804 169.02 76.3606 168.692 78.301C168.679 78.3802 168.665 78.4593 168.652 78.538C168.489 79.4994 168.306 80.5492 167.977 81.4753C167.634 82.4415 167.08 83.4374 166.07 84.1769C165.07 84.909 163.853 85.2223 162.5 85.2789C161.763 85.3096 160.947 85.2662 160.041 85.1546C160.068 91.8739 161.138 100.951 164.097 110.099C168.849 124.788 178.34 139.308 195.827 144.937C199.202 146.023 202.291 146.401 205.122 146.221C210.271 145.893 214.593 142.796 218.252 137.872C221.915 132.944 224.731 126.413 226.854 119.784C228.968 113.178 230.355 106.6 231.214 101.66C231.642 99.1939 231.938 97.1445 232.126 95.715C232.22 95.0005 232.286 94.4414 232.33 94.0631C232.351 93.874 232.367 93.7301 232.377 93.6347L232.381 93.5966L232.381 93.4803C232.38 93.333 232.378 93.1135 232.374 92.8293C232.366 92.2608 232.349 91.4338 232.317 90.4071C232.251 88.3524 232.121 85.5049 231.86 82.3342C231.376 76.4495 230.459 69.6698 228.774 64.7512ZM155.975 84.2842C153.563 83.7183 150.669 83.5737 148.392 84.4604C147.082 84.9707 145.989 85.813 145.235 87.1453C144.467 88.5031 143.958 90.5377 144.145 93.5732C144.506 99.4261 147.487 103.094 151.147 105.39C153.793 107.049 156.784 107.976 159.332 108.402C156.795 99.4473 155.916 90.771 155.975 84.2842ZM164.966 122.771C165.303 129.796 165.493 137.623 165.305 144.605L187.805 155.762C188.322 156.018 188.705 156.481 188.861 157.036L200.495 198.589L204.311 166.053L203.341 150.329C200.555 150.284 197.635 149.792 194.581 148.81C180.153 144.166 170.823 134.035 164.966 122.771ZM208.085 168.8L203.356 209.119L208.272 289.216C214.328 289.55 219.868 290.207 224.447 291.302C229.388 292.485 233.606 294.266 235.972 297.076C237.267 298.614 238.484 300.215 239.613 301.857L238.246 254.481C238.244 254.396 238.247 254.31 238.255 254.225L244.839 186.88C239.959 183.842 235.252 181.168 230.834 178.845C225.111 175.836 219.878 173.417 215.391 171.564C212.653 170.432 210.198 169.514 208.085 168.8ZM248.472 191.535L285.422 244.804C285.817 245.373 286.474 245.702 287.166 245.677C287.859 245.652 288.491 245.277 288.844 244.681L319.908 192.244C319.94 192.19 319.97 192.135 319.996 192.079L325.104 181.301C325.336 180.812 325.364 180.25 325.18 179.741C324.997 179.232 324.619 178.816 324.129 178.587C317.936 175.689 313.166 172.834 309.992 170.172C306.711 167.419 305.594 165.26 305.629 163.794C305.66 162.536 306.62 160.824 310.412 159.083C314.127 157.376 319.986 155.94 328.38 154.982C330.052 154.791 332.167 154.646 334.173 154.621C336.225 154.596 337.994 154.701 339.061 154.944C343.09 155.862 345.598 157.71 347.178 160.042C348.794 162.429 349.571 165.519 349.737 169.107C350.035 175.574 348.345 182.986 346.88 189.415C346.715 190.136 346.554 190.844 346.398 191.538L316.301 261.729C312.101 270.744 307.085 278.275 300.243 281.976C293.58 285.58 284.673 285.802 271.996 278.976C259.135 272.051 252.652 265.995 248.911 261.572C247.392 259.776 246.32 258.247 245.402 256.938C245.177 256.617 244.961 256.309 244.75 256.014C244.091 255.091 243.359 254.091 242.429 253.349L248.472 191.535ZM240.039 310.49C238.137 306.774 235.712 303.084 232.86 299.696C231.38 297.939 228.275 296.402 223.5 295.259C218.82 294.139 212.91 293.482 206.263 293.19C184.83 292.247 156.563 295.122 139.577 297.615L123.398 301.95C122.313 302.241 121.197 301.597 120.907 300.512C120.616 299.426 121.26 298.311 122.345 298.02L136.673 294.181L127.063 258.314L108.475 189.408C101.27 195.703 95.2718 204.091 90.8591 216.022C87.8956 224.035 86.2762 235.501 85.4087 245.11C84.9775 249.885 84.7362 254.148 84.6028 257.217C84.536 258.751 84.4964 259.986 84.4734 260.834C84.4619 261.259 84.4545 261.587 84.4501 261.808L84.4457 262.047L84.4562 262.177C84.4686 262.325 84.4879 262.549 84.515 262.841C84.5691 263.426 84.6545 264.287 84.7785 265.382C85.0267 267.572 85.4294 270.695 86.0461 274.408C87.2815 281.846 89.3672 291.602 92.7662 300.97C96.1788 310.376 100.842 319.183 107.117 324.921C113.281 330.558 121.035 333.287 131.074 330.597C131.123 330.584 131.172 330.572 131.222 330.563L205.974 316.402C206.759 316.253 207.559 316.578 208.018 317.232C211.62 322.368 217.634 328.426 223.838 332.678C226.937 334.803 230.001 336.418 232.762 337.267C235.547 338.123 237.79 338.13 239.455 337.392C243.861 335.436 245.631 330.283 244.354 322.854C243.69 318.995 242.219 314.767 240.079 310.568C240.065 310.543 240.052 310.517 240.039 310.49ZM111.934 186.609L140.662 293.348C157.284 290.986 183.406 288.387 204.185 289.041L199.298 209.403L186.723 164.491L182.278 177.694C182.079 178.286 181.619 178.753 181.031 178.962C180.442 179.171 179.791 179.098 179.263 178.764L159.73 166.409C159.545 166.505 159.357 166.595 159.169 166.682C158.465 167.005 157.632 167.327 156.709 167.653C154.938 168.278 152.694 168.965 150.152 169.745L149.84 169.84C144.464 171.488 137.639 173.594 130.365 176.552C128.539 177.294 126.755 178.069 125.013 178.886C120.326 181.087 115.955 183.595 111.934 186.609ZM162.616 163.42L179.249 173.941L184.407 158.618L165.124 149.057C164.938 152.369 164.64 155.408 164.194 157.944C163.902 159.602 163.536 161.104 163.07 162.353C162.935 162.712 162.785 163.071 162.616 163.42ZM208.297 164.586C208.743 164.73 209.204 164.883 209.68 165.045L208.216 163.28L208.297 164.586ZM317.178 188.525L320.56 181.39C315.062 178.704 310.583 175.978 307.377 173.288C303.928 170.395 301.479 167.145 301.562 163.695C301.651 160.036 304.495 157.323 308.714 155.385C313.009 153.413 319.368 151.915 327.918 150.939C329.722 150.734 331.974 150.579 334.124 150.553C335.558 150.535 337.025 150.573 338.308 150.712L344.855 136.473C346.703 132.452 345 127.692 341.021 125.757L323.565 117.266C319.359 115.22 314.298 117.133 312.497 121.45L292.763 168.741C291.072 172.794 292.901 177.457 296.897 179.279L317.178 188.525ZM195.439 213.112C196.291 213.844 196.388 215.129 195.656 215.981L193.818 218.119L196.453 220.169C197.34 220.859 197.5 222.137 196.81 223.024C196.12 223.91 194.842 224.07 193.955 223.38L191.163 221.208L188.445 224.372C187.712 225.224 186.428 225.321 185.576 224.589C184.724 223.857 184.627 222.572 185.359 221.72L187.948 218.707L185.653 216.922C184.766 216.232 184.606 214.954 185.296 214.067C185.986 213.18 187.264 213.021 188.151 213.711L190.603 215.618L192.57 213.329C193.302 212.477 194.587 212.38 195.439 213.112ZM219.849 241.591C220.702 242.323 220.799 243.608 220.066 244.46L218.229 246.598L220.864 248.648C221.751 249.338 221.91 250.616 221.221 251.503C220.531 252.39 219.253 252.549 218.366 251.859L215.574 249.687L212.855 252.851C212.123 253.703 210.839 253.8 209.987 253.068C209.135 252.336 209.037 251.051 209.77 250.199L212.359 247.186L210.063 245.401C209.177 244.711 209.017 243.433 209.707 242.546C210.397 241.659 211.675 241.5 212.561 242.19L215.014 244.097L216.981 241.808C217.713 240.956 218.997 240.859 219.849 241.591ZM195.439 272.105C196.291 272.837 196.388 274.121 195.656 274.973L193.818 277.112L196.453 279.161C197.34 279.851 197.5 281.129 196.81 282.016C196.12 282.903 194.842 283.063 193.955 282.373L191.163 280.201L188.445 283.364C187.712 284.216 186.428 284.313 185.576 283.581C184.724 282.849 184.627 281.565 185.359 280.713L187.948 277.7L185.653 275.914C184.766 275.224 184.606 273.946 185.296 273.06C185.986 272.173 187.264 272.013 188.151 272.703L190.603 274.611L192.57 272.321C193.302 271.469 194.587 271.372 195.439 272.105Z" fill="black"/>
<path d="M129.601 174.667C144.333 168.676 157.211 166.153 159.736 164.004C161.933 162.134 162.923 154.824 163.233 145.847L186.904 157.584L201.317 209.062L206.355 166.109L205.804 157.179L216.17 169.683C220.717 171.562 226.006 174.006 231.783 177.044C236.565 179.559 241.682 182.481 246.988 185.824L240.282 254.422L241.873 309.605L234.418 298.386C230.573 293.819 219.771 291.747 206.355 291.157C184.683 290.204 156.189 293.115 139.166 295.619L129.03 257.787L109.617 185.824C114.073 182.327 118.942 179.49 124.151 177.044C125.929 176.21 127.746 175.421 129.601 174.667Z" fill="#4285F4" fill-opacity="0.25"/>
<path fill-rule="evenodd" clip-rule="evenodd" d="M162.184 144.1C162.778 143.746 163.511 143.718 164.13 144.025L187.801 155.761C188.317 156.017 188.701 156.48 188.856 157.035L200.491 198.589L204.307 166.052L203.767 157.305C203.713 156.426 204.23 155.612 205.049 155.288C205.867 154.964 206.802 155.203 207.363 155.881L217.408 167.997C221.907 169.873 227.089 172.281 232.724 175.244C237.551 177.782 242.713 180.73 248.066 184.103C248.717 184.513 249.081 185.256 249.006 186.022L242.312 254.492L243.9 309.546C243.926 310.454 243.348 311.269 242.483 311.543C241.617 311.818 240.675 311.487 240.172 310.731L232.786 299.615C231.28 297.891 228.197 296.384 223.496 295.259C218.816 294.139 212.905 293.482 206.259 293.19C184.777 292.244 156.43 295.135 139.456 297.632C138.435 297.782 137.462 297.143 137.195 296.145L127.059 258.317L107.647 186.353C107.434 185.566 107.713 184.727 108.355 184.223C112.958 180.612 117.965 177.698 123.28 175.203C125.094 174.351 126.945 173.548 128.828 172.782C136.287 169.749 143.267 167.598 148.643 165.95L148.895 165.872C151.49 165.077 153.662 164.411 155.351 163.816C156.22 163.509 156.922 163.235 157.464 162.985C158.032 162.724 158.309 162.542 158.412 162.455C158.566 162.323 158.89 161.904 159.254 160.928C159.601 160 159.914 158.763 160.183 157.238C160.719 154.19 161.04 150.227 161.194 145.777C161.218 145.086 161.591 144.454 162.184 144.1ZM209.676 165.045L208.212 163.279L208.292 164.585C208.739 164.729 209.2 164.882 209.676 165.045ZM208.081 168.8L203.352 209.119L208.267 289.216C214.324 289.55 219.864 290.206 224.443 291.302C229.384 292.484 233.602 294.266 235.968 297.075C236.017 297.134 236.063 297.196 236.106 297.26L239.628 302.561L238.242 254.481C238.24 254.395 238.242 254.31 238.251 254.224L244.835 186.879C239.954 183.842 235.247 181.168 230.83 178.845C225.106 175.835 219.874 173.417 215.387 171.563C212.648 170.432 210.194 169.513 208.081 168.8ZM204.18 289.04L199.293 209.402L186.719 164.49L182.274 177.693C182.075 178.285 181.615 178.753 181.026 178.962C180.438 179.17 179.786 179.097 179.259 178.764L159.726 166.408C159.541 166.504 159.353 166.595 159.164 166.681C158.461 167.005 157.628 167.327 156.704 167.653C154.933 168.277 152.688 168.965 150.145 169.745L149.836 169.839C144.459 171.488 137.634 173.593 130.36 176.551C128.535 177.293 126.75 178.068 125.009 178.886C120.322 181.086 115.95 183.594 111.929 186.609L130.988 257.261L140.657 293.347C157.28 290.986 183.402 288.387 204.18 289.04ZM162.611 163.419L179.244 173.941L184.403 158.618L165.119 149.056C164.934 152.368 164.636 155.407 164.189 157.944C163.897 159.601 163.532 161.104 163.065 162.352C162.931 162.712 162.781 163.071 162.611 163.419ZM195.434 213.112C196.287 213.844 196.384 215.128 195.651 215.98L193.814 218.119L196.449 220.169C197.336 220.858 197.495 222.136 196.806 223.023C196.116 223.91 194.838 224.07 193.951 223.38L191.159 221.208L188.44 224.371C187.708 225.223 186.424 225.321 185.572 224.588C184.72 223.856 184.622 222.572 185.355 221.72L187.944 218.707L185.648 216.921C184.762 216.231 184.602 214.953 185.292 214.067C185.982 213.18 187.26 213.02 188.146 213.71L190.599 215.618L192.566 213.329C193.298 212.476 194.582 212.379 195.434 213.112ZM219.845 241.591C220.697 242.323 220.794 243.607 220.062 244.459L218.224 246.598L220.86 248.648C221.746 249.337 221.906 250.616 221.216 251.502C220.526 252.389 219.248 252.549 218.361 251.859L215.57 249.687L212.851 252.85C212.119 253.703 210.834 253.8 209.982 253.067C209.13 252.335 209.033 251.051 209.765 250.199L212.354 247.186L210.059 245.4C209.172 244.71 209.013 243.432 209.702 242.546C210.392 241.659 211.67 241.499 212.557 242.189L215.009 244.097L216.976 241.808C217.709 240.956 218.993 240.858 219.845 241.591ZM195.434 272.104C196.287 272.836 196.384 274.121 195.651 274.973L193.814 277.111L196.449 279.161C197.336 279.851 197.495 281.129 196.805 282.016C196.116 282.902 194.838 283.062 193.951 282.372L191.159 280.2L188.44 283.364C187.708 284.216 186.424 284.313 185.572 283.581C184.72 282.849 184.622 281.564 185.355 280.712L187.944 277.699L185.648 275.914C184.762 275.224 184.602 273.946 185.292 273.059C185.982 272.172 187.26 272.013 188.146 272.702L190.599 274.61L192.566 272.321C193.298 271.469 194.582 271.372 195.434 272.104Z" fill="black"/>
<path fill-rule="evenodd" clip-rule="evenodd" d="M186.771 77.3342C184.513 81.0143 183.05 86.2272 183.05 92.0928C183.05 97.9585 184.513 103.171 186.771 106.851C189.05 110.565 191.928 112.435 194.747 112.435C197.566 112.435 200.443 110.565 202.722 106.851C204.98 103.171 206.443 97.9585 206.443 92.0928C206.443 86.2272 204.98 81.0143 202.722 77.3342C200.443 73.6204 197.566 71.7506 194.747 71.7506C191.928 71.7506 189.05 73.6204 186.771 77.3342ZM183.304 75.2064C185.994 70.8215 189.982 67.6822 194.747 67.6822C199.511 67.6822 203.499 70.8215 206.19 75.2064C208.615 79.1593 210.16 84.3582 210.459 90.0586H213.616C213.915 84.3582 215.46 79.1593 217.885 75.2064C220.576 70.8215 224.564 67.6822 229.328 67.6822C234.093 67.6822 238.081 70.8215 240.772 75.2064C243.483 79.625 245.094 85.6003 245.094 92.0928C245.094 98.5854 243.483 104.561 240.772 108.979C238.081 113.364 234.093 116.503 229.328 116.503C224.564 116.503 220.576 113.364 217.885 108.979C215.46 105.026 213.915 99.8275 213.616 94.1271H210.459C210.16 99.8275 208.615 105.026 206.19 108.979C203.499 113.364 199.511 116.503 194.747 116.503C189.982 116.503 185.994 113.364 183.304 108.979C180.784 104.874 179.215 99.4235 179.006 93.4635L156.846 84.3104C155.807 83.8815 155.313 82.6921 155.742 81.6537C156.171 80.6153 157.36 80.1212 158.399 80.5501L179.097 89.0994C179.51 83.7759 181.015 78.9364 183.304 75.2064ZM221.353 77.3342C219.095 81.0143 217.632 86.2272 217.632 92.0928C217.632 97.9585 219.095 103.171 221.353 106.851C223.632 110.565 226.509 112.435 229.328 112.435C232.147 112.435 235.025 110.565 237.304 106.851C239.562 103.171 241.025 97.9585 241.025 92.0928C241.025 86.2272 239.562 81.0143 237.304 77.3342C235.025 73.6204 232.147 71.7506 229.328 71.7506C226.509 71.7506 223.632 73.6204 221.353 77.3342Z" fill="black"/>
<circle cx="1030" cy="209" r="75" fill="#4285F4" fill-opacity="0.1"/>
<circle cx="1030" cy="209" r="50" fill="#4285F4" fill-opacity="0.1"/>
<circle cx="1030" cy="209" r="25" fill="#4285F4" fill-opacity="0.1"/>
<circle cx="1030" cy="209" r="125" fill="#4285F4" fill-opacity="0.1"/>
<circle cx="1030" cy="209" r="100" fill="#4285F4" fill-opacity="0.1"/>
<circle cx="1030" cy="209" r="75" fill="#4285F4" fill-opacity="0.1"/>
<circle cx="1030" cy="209" r="50" fill="#4285F4" fill-opacity="0.1"/>
<circle cx="1030" cy="209" r="25" fill="#4285F4" fill-opacity="0.1"/>
<path d="M998.724 266.978C1014.78 256.617 1020.29 239.527 1021.08 223.895C1023.94 239.516 1031.14 271.461 1037.08 274.279C1040.04 275.689 1053.02 274.801 1068.66 276.757C1054.23 299.009 1014.6 335.859 971.447 305.245C980.23 297.13 987.936 291.382 992.985 288.253L989.459 270.874C992.488 270.266 995.582 269.005 998.724 266.978Z" fill="#CBA692"/>
<path d="M939.331 222.048C936.835 212.499 934.801 191.461 946.632 183.697C964.797 190.625 1004.47 202.798 1017.85 196.061C1019.9 202.767 1021.64 212.975 1021.08 223.895C1020.29 239.527 1014.78 256.617 998.724 266.978C995.582 269.005 992.488 270.266 989.459 270.874C966.201 275.546 946.796 241.787 939.331 222.048Z" fill="#CBA692"/>
<path d="M1021.08 223.895C1021.64 212.975 1019.9 202.767 1017.85 196.061C1022.78 192.826 1033.3 189.576 1035.91 202.453C1038.52 215.33 1027.11 222.113 1021.08 223.895Z" fill="#CBA692"/>
<path d="M959.142 317.55L976.376 356.186C972.943 358.649 960.728 368.618 939.331 388.781C917.934 408.945 901.984 380.38 894.631 368.504L864.602 313.906C861.241 316.734 832.986 335.305 843.716 305.245C856.855 268.435 877.933 288.008 885.598 296.237L927.325 345.336L959.142 317.55Z" fill="#CBA692"/>
<path d="M1023 140L1026 136L1047 138V166L1035.5 168L1033 165.5L1020.5 146L1023 140Z" fill="#F4A099"/>
<path d="M1123.99 305.247C1127.33 310.017 1136.27 328.65 1136.27 348.368L1123.99 422.276C1117.1 425.516 987.211 428.432 976.373 428.432L976.373 356.188L959.14 317.552C963.362 312.991 967.511 308.881 971.444 305.247C1014.59 335.861 1054.23 299.011 1068.66 276.759C1087.51 279.117 1102.6 288.255 1123.99 305.247Z" fill="#E5E5E5"/>
<path fill-rule="evenodd" clip-rule="evenodd" d="M955.987 150.124C960.965 147.445 966.694 144.966 973.257 142.739C979.167 140.733 984.593 139.411 989.574 138.694C996.132 137.75 1001.93 137.855 1007.03 138.842C1011.71 139.747 1015.76 141.381 1019.24 143.569C1020.05 139.573 1021.43 136.721 1023.55 135.161C1025.35 133.833 1027.36 133.668 1029.26 134.097C1033.14 126.337 1039.41 118.846 1047.39 116.262C1051.73 114.856 1056.49 114.94 1061.44 117.132C1066.34 119.304 1071.32 123.498 1076.29 130.137C1088.69 146.697 1091.08 160.779 1090.43 172.873C1090.13 178.399 1089.19 183.493 1088.35 188.091C1088.28 188.469 1088.21 188.844 1088.14 189.215C1087.24 194.173 1086.54 198.446 1086.77 202.333C1087.14 208.445 1087.82 213.516 1088.8 217.523C1089.78 221.563 1091.03 224.354 1092.42 226.056C1093.75 227.673 1095.14 228.256 1096.71 228.13C1098.45 227.991 1100.74 226.963 1103.63 224.555C1104.32 223.976 1105.32 223.931 1106.06 224.444C1106.81 224.958 1107.12 225.904 1106.83 226.759C1101.13 243.323 1090.91 251.406 1081.26 251.775C1071.46 252.15 1063.42 244.532 1062.59 232.29C1060.55 202.582 1056.28 186.387 1051.12 178.019C1048.58 173.899 1045.89 171.795 1043.24 170.819C1041.16 170.055 1038.96 169.926 1036.62 170.236C1039.31 181.214 1039.23 193.058 1037.95 202.399C1039.26 209.413 1036.8 214.852 1033.22 218.709C1030.23 221.923 1026.46 224.059 1023.39 225.24C1024.85 232.969 1027.2 243.853 1029.87 253.343C1031.31 258.456 1032.83 263.106 1034.33 266.624C1035.08 268.386 1035.81 269.806 1036.49 270.841C1037.21 271.937 1037.72 272.353 1037.94 272.46C1038.06 272.517 1038.37 272.62 1038.99 272.725C1039.57 272.824 1040.31 272.907 1041.22 272.978C1042.99 273.115 1045.24 273.195 1047.93 273.291L1048.19 273.3C1053.76 273.499 1060.99 273.768 1068.91 274.758C1088.35 277.189 1103.8 286.634 1125.25 303.668C1125.4 303.789 1125.53 303.932 1125.64 304.091C1127.45 306.678 1130.6 312.714 1133.29 320.546C1135.99 328.404 1138.29 338.22 1138.29 348.367C1138.29 348.478 1138.28 348.589 1138.26 348.698L1125.98 422.606C1125.87 423.26 1125.45 423.818 1124.85 424.1C1124.11 424.45 1122.9 424.681 1121.62 424.873C1120.23 425.08 1118.43 425.282 1116.3 425.478C1112.03 425.871 1106.32 426.252 1099.66 426.617C1086.32 427.348 1069.08 428.016 1051.73 428.584C1017.05 429.718 981.834 430.448 976.378 430.448C975.843 430.448 975.33 430.235 974.952 429.857C974.574 429.479 974.362 428.966 974.362 428.432L974.362 360.289C968.823 364.734 957.68 374.263 940.715 390.25C935.097 395.545 929.613 397.839 924.343 397.807C919.111 397.776 914.452 395.45 910.452 392.229C903.249 386.429 897.614 377.227 893.947 371.24C893.585 370.649 893.242 370.089 892.919 369.567C892.901 369.538 892.883 369.508 892.867 369.477L863.948 316.899C862.741 317.73 861.16 318.739 859.406 319.73C856.397 321.43 852.663 323.203 849.275 323.887C847.582 324.228 845.804 324.334 844.187 323.886C842.485 323.414 841.04 322.345 840.17 320.564C839.344 318.871 839.123 316.715 839.392 314.155C839.662 311.576 840.447 308.413 841.819 304.569C845.167 295.19 849.112 289.127 853.454 285.59C857.875 281.988 862.575 281.115 867.045 281.865C871.424 282.6 875.487 284.87 878.871 287.379C882.273 289.902 885.123 292.769 887.075 294.865C887.083 294.874 887.091 294.882 887.099 294.891C887.111 294.905 887.124 294.919 887.136 294.933L927.54 342.475L957.738 316.104C961.972 311.533 966.133 307.414 970.08 303.766C978.282 296.188 985.586 290.626 990.735 287.295L987.869 273.168C975.908 274.571 965.276 266.825 956.932 256.915C950.009 248.692 944.339 238.619 940.383 229.836C940.402 230.507 940.404 231.19 940.389 231.882C940.208 239.831 937.579 249.219 928.529 255.947C923.408 259.754 918.466 260.881 913.924 260.23C909.451 259.589 905.609 257.257 902.539 254.59C899.461 251.916 897.043 248.803 895.404 246.388C894.58 245.175 893.944 244.123 893.511 243.37C893.295 242.994 893.129 242.691 893.015 242.479C892.958 242.373 892.914 242.289 892.884 242.231L892.848 242.161L892.835 242.135L892.833 242.132C892.833 242.131 892.833 242.131 894.633 241.224L892.833 242.132C892.393 241.258 892.643 240.192 893.428 239.607C894.211 239.024 895.298 239.085 896.01 239.751C896.011 239.751 896.01 239.751 896.01 239.751C896.011 239.752 896.013 239.754 896.014 239.754C896.014 239.755 896.013 239.754 896.014 239.754C896.014 239.755 896.016 239.757 896.017 239.757L896.018 239.758C896.029 239.768 896.049 239.786 896.078 239.811C896.136 239.862 896.232 239.943 896.361 240.045C896.62 240.249 897.011 240.536 897.512 240.842C898.524 241.461 899.925 242.122 901.555 242.383C903.158 242.64 905.012 242.518 907.018 241.538C909.042 240.55 911.349 238.626 913.723 235.065C915.777 231.983 915.946 227.761 914.794 222.093C913.919 217.788 912.366 213.001 910.642 207.688C910.1 206.017 909.541 204.294 908.981 202.518C904.364 187.876 899.87 170.176 906.447 151.886C909.07 144.59 912.587 139.796 916.852 137.13C921.156 134.44 925.93 134.097 930.659 135.12C939.501 137.032 948.692 143.83 955.987 150.124ZM952.264 152.248C936.731 161.646 929.544 173.177 927.498 184.681C925.363 196.682 928.883 208.319 933.69 217C933.731 217.075 933.773 217.149 933.814 217.223C934.497 218.612 936.52 224.632 936.357 231.79C936.195 238.933 933.872 246.951 926.124 252.711C921.754 255.959 917.864 256.721 914.496 256.238C911.06 255.746 907.914 253.919 905.184 251.546C903.268 249.882 901.614 247.998 900.27 246.245C900.482 246.289 900.698 246.329 900.917 246.365C903.247 246.738 905.954 246.545 908.787 245.162C911.602 243.787 914.411 241.301 917.078 237.302C920.063 232.823 919.95 227.215 918.745 221.29C917.82 216.74 916.166 211.643 914.424 206.274C913.893 204.64 913.355 202.981 912.827 201.305C908.229 186.723 904.155 170.176 910.241 153.25C912.683 146.459 915.755 142.572 918.99 140.55C922.187 138.551 925.825 138.199 929.807 139.061C937.193 140.658 945.25 146.314 952.264 152.248ZM935.621 211.929C932.003 204.263 929.781 194.874 931.468 185.387C933.375 174.665 940.334 163.483 956.708 154.328C961.727 151.521 967.634 148.905 974.553 146.557C980.265 144.619 985.449 143.362 990.148 142.685C996.335 141.795 1001.67 141.913 1006.26 142.801C1020.81 145.613 1028.55 156.321 1032.17 169.19C1034.52 177.519 1035.09 186.623 1034.64 194.724C1034.47 194.526 1034.3 194.337 1034.12 194.155C1032.32 192.326 1030.16 191.453 1027.97 191.212C1023.79 190.753 1019.51 192.59 1016.85 194.309C1013.99 195.712 1009.48 196.228 1003.74 195.934C998.009 195.64 991.347 194.557 984.474 193.037C970.732 189.996 956.369 185.254 947.353 181.815C946.748 181.584 946.069 181.658 945.528 182.013C938.836 186.404 936.28 194.387 935.602 202.027C935.305 205.379 935.359 208.765 935.621 211.929ZM941.257 221.437C940.063 216.825 938.99 209.472 939.619 202.383C940.223 195.568 942.35 189.46 946.923 185.964C956.11 189.415 970.124 193.991 983.603 196.974C990.591 198.52 997.493 199.651 1003.53 199.961C1008.42 200.211 1012.95 199.939 1016.53 198.772C1018.24 205.218 1019.56 214.228 1019.07 223.794C1018.29 239.075 1012.93 255.411 997.632 265.285C994.681 267.191 991.82 268.345 989.064 268.899C978.578 271.005 968.597 264.509 960.017 254.318C951.545 244.256 944.944 231.158 941.257 221.437ZM1020.23 196.997C1022.39 195.837 1025.12 194.956 1027.53 195.221C1028.92 195.373 1030.18 195.899 1031.24 196.981C1032.33 198.084 1033.34 199.901 1033.93 202.855C1035.09 208.551 1033.18 212.827 1030.26 215.964C1028.16 218.231 1025.53 219.886 1023.2 220.947C1023.33 211.724 1021.95 203.192 1020.23 196.997ZM1021.49 236.148C1022.77 242.053 1024.32 248.504 1025.99 254.436C1027.45 259.615 1029.02 264.456 1030.62 268.209C1031.42 270.082 1032.26 271.742 1033.12 273.054C1033.94 274.306 1034.95 275.505 1036.21 276.102C1036.83 276.398 1037.58 276.575 1038.31 276.699C1039.06 276.829 1039.94 276.923 1040.91 276.998C1042.77 277.142 1045.09 277.225 1047.73 277.318L1048.05 277.33C1052.82 277.5 1058.69 277.719 1065.13 278.384C1057.72 288.882 1045.28 301.692 1029.96 309.008C1013.96 316.648 994.819 318.317 974.686 305.021C982.612 297.874 989.488 292.796 994.049 289.968C994.766 289.524 995.131 288.68 994.963 287.854L991.823 272.375C994.478 271.617 997.147 270.398 999.819 268.673C1012.44 260.527 1018.77 248.435 1021.49 236.148ZM971.634 307.83C993.41 322.616 1014.39 320.909 1031.7 312.647C1048.69 304.535 1062.14 290.126 1069.65 278.925C1087.29 281.44 1101.77 290.193 1122.5 306.637C1124.07 308.973 1126.95 314.508 1129.48 321.857C1132.07 329.394 1134.23 338.689 1134.25 348.202L1122.21 420.682C1121.88 420.747 1121.49 420.815 1121.02 420.885C1119.74 421.076 1118.03 421.269 1115.93 421.463C1111.74 421.849 1106.09 422.227 1099.44 422.591C1086.14 423.319 1068.94 423.987 1051.6 424.553C1019.88 425.591 987.771 426.288 978.394 426.4L978.394 356.187C978.394 355.904 978.334 355.625 978.219 355.366L961.529 317.949C964.982 314.263 968.376 310.886 971.634 307.83ZM958.415 320.866L973.88 355.537C969.112 359.199 957.224 369.153 937.95 387.316C932.87 392.103 928.337 393.799 924.368 393.775C920.362 393.751 916.563 391.973 912.981 389.089C906.362 383.759 901.094 375.173 897.368 369.103C897.024 368.542 896.693 368.002 896.375 367.488L867.163 314.377C870.123 311.831 872.981 309.177 875.516 306.685C876.31 305.904 876.321 304.628 875.541 303.834C874.76 303.039 873.483 303.029 872.689 303.809C869.86 306.591 866.622 309.574 863.306 312.365C862.592 312.966 860.309 314.588 857.422 316.219C854.523 317.857 851.234 319.378 848.478 319.934C847.101 320.212 846.028 320.211 845.263 320C844.583 319.811 844.116 319.455 843.794 318.794C843.428 318.046 843.175 316.743 843.402 314.576C843.627 312.428 844.306 309.596 845.617 305.925C848.838 296.899 852.456 291.604 856.001 288.716C859.467 285.892 862.979 285.271 866.378 285.841C869.87 286.427 873.334 288.293 876.469 290.618C879.568 292.916 882.215 295.565 884.093 297.58L925.737 346.581L929.951 352.438C930.602 353.342 931.861 353.547 932.765 352.897C933.669 352.246 933.875 350.987 933.224 350.083L930.035 345.649L958.415 320.866ZM1039.89 166.075C1041.51 164.378 1043.1 162.442 1044.35 160.413C1046.75 156.527 1048.41 151.404 1044.99 147.209C1043.29 145.125 1041.11 142.559 1038.74 140.256C1036.96 138.524 1035 136.853 1032.99 135.661C1036.63 128.475 1042.19 122.185 1048.63 120.098C1052.04 118.996 1055.77 119.032 1059.8 120.818C1063.88 122.625 1068.36 126.267 1073.06 132.553C1084.86 148.305 1087.01 161.44 1086.4 172.655C1086.11 177.913 1085.23 182.767 1084.38 187.397C1084.31 187.763 1084.24 188.128 1084.18 188.492C1083.28 193.381 1082.48 198.126 1082.75 202.576C1083.12 208.828 1083.83 214.157 1084.88 218.478C1085.92 222.766 1087.35 226.232 1089.3 228.611C1091.32 231.075 1093.93 232.398 1097.04 232.149C1098.23 232.053 1099.45 231.728 1100.68 231.199C1095.22 242.712 1087.48 247.502 1081.11 247.746C1073.91 248.021 1067.33 242.534 1066.61 232.015C1064.57 202.247 1060.27 185.175 1054.55 175.901C1051.65 171.201 1048.31 168.391 1044.63 167.035C1043.06 166.457 1041.48 166.161 1039.89 166.075ZM1035.13 165.114C1037.17 163.219 1039.37 160.8 1040.92 158.296C1043.14 154.69 1043.52 151.794 1041.86 149.756C1040.2 147.715 1038.13 145.288 1035.93 143.145C1033.69 140.969 1031.48 139.233 1029.54 138.412C1027.85 137.697 1026.75 137.812 1025.94 138.41C1024.97 139.124 1023.8 140.931 1023.07 145.005C1023 145.383 1022.83 145.717 1022.6 145.984C1028.62 150.919 1032.62 157.717 1035.13 165.114Z" fill="black"/>
<path d="M1123.99 305.247C1127.33 310.017 1136.27 328.65 1136.27 348.368L1126.5 428.432C1126.5 428.432 987.211 428.432 976.373 428.432L976.373 356.188L959.14 317.552C963.362 312.991 967.511 308.881 971.444 305.247C1014.59 335.861 1054.23 299.011 1068.66 276.759C1087.51 279.117 1102.6 288.255 1123.99 305.247Z" fill="#B9D6C0"/>
<path d="M920.5 138H936L957 153.5L982 142.5L1004 140.5L1016 144L1027 153.5L1033.5 170L1036 187V196.5L1027 192.5L1013.5 196.5H992L966 190L946.5 183L938 192.5L936 217L933 214L938 227.5L936 241L930.5 251L920 257L910.5 256L898.5 246.5L909.5 242L918 234.5L914.5 211L906 176.5L909 153.5L913 144L920.5 138Z" fill="#303134"/>
<path d="M1031.5 134.5L1039 124L1052.5 117.5L1065.5 123L1082.5 142.5L1088.5 167L1084 195.5L1088 223.5L1095 230.5H1102L1097 240.5L1086 249L1076 248L1067.5 241.5L1065.5 230.5L1063 205.5L1058 187L1049 171L1038 167L1046 151L1031.5 134.5Z" fill="#303134"/>
<path fill-rule="evenodd" clip-rule="evenodd" d="M955.987 150.124C960.965 147.445 966.694 144.966 973.257 142.739C979.167 140.733 984.593 139.411 989.574 138.694C996.132 137.75 1001.93 137.855 1007.03 138.842C1011.71 139.747 1015.76 141.381 1019.24 143.569C1020.05 139.573 1021.43 136.721 1023.55 135.161C1025.35 133.833 1027.36 133.668 1029.26 134.097C1033.14 126.337 1039.41 118.846 1047.39 116.262C1051.73 114.856 1056.49 114.94 1061.44 117.132C1066.34 119.304 1071.32 123.498 1076.29 130.137C1088.69 146.697 1091.08 160.779 1090.43 172.873C1090.13 178.399 1089.19 183.493 1088.35 188.091C1088.28 188.469 1088.21 188.844 1088.14 189.215C1087.24 194.173 1086.54 198.446 1086.77 202.333C1087.14 208.445 1087.82 213.516 1088.8 217.523C1089.78 221.563 1091.03 224.354 1092.42 226.056C1093.75 227.673 1095.14 228.256 1096.71 228.13C1098.45 227.991 1100.74 226.963 1103.63 224.555C1104.32 223.976 1105.32 223.931 1106.06 224.444C1106.81 224.958 1107.12 225.904 1106.83 226.759C1101.13 243.323 1090.91 251.406 1081.26 251.775C1071.46 252.15 1063.42 244.532 1062.59 232.29C1060.55 202.582 1056.28 186.387 1051.12 178.019C1048.58 173.899 1045.89 171.795 1043.24 170.819C1041.16 170.055 1038.96 169.926 1036.62 170.236C1039.31 181.214 1039.23 193.058 1037.95 202.399C1039.26 209.413 1036.8 214.852 1033.22 218.709C1030.23 221.923 1026.46 224.059 1023.39 225.24C1024.85 232.969 1027.2 243.853 1029.87 253.343C1031.31 258.456 1032.83 263.106 1034.33 266.624C1035.08 268.386 1035.81 269.806 1036.49 270.841C1037.21 271.937 1037.72 272.353 1037.94 272.46C1038.06 272.517 1038.37 272.62 1038.99 272.725C1039.57 272.824 1040.31 272.907 1041.22 272.978C1042.99 273.115 1045.24 273.195 1047.93 273.291L1048.19 273.3C1053.76 273.499 1060.99 273.768 1068.91 274.758C1088.35 277.189 1103.8 286.634 1125.25 303.668C1125.4 303.789 1125.53 303.931 1125.64 304.091C1127.45 306.678 1130.6 312.714 1133.29 320.546C1135.99 328.404 1138.29 338.22 1138.29 348.367C1138.29 348.478 1138.28 348.589 1138.26 348.698L1127 429.857C1126.89 430.511 1125.85 429.575 1125.25 429.857C1124.5 430.207 1123.78 429.309 1122.5 429.5C1121.11 429.707 1118.63 429.304 1116.5 429.5C1112.23 429.893 1109.17 429.135 1102.5 429.5C1089.16 430.23 1069.08 428.016 1051.73 428.584C1017.05 429.718 981.834 430.448 976.378 430.448C975.843 430.448 975.33 430.235 974.952 429.857C974.574 429.479 974.362 428.966 974.362 428.432L974.362 360.289C968.823 364.734 957.68 374.263 940.715 390.25C935.097 395.545 929.613 397.839 924.343 397.807C919.111 397.776 914.452 395.45 910.452 392.229C903.249 386.429 897.614 377.227 893.947 371.24C893.585 370.649 893.242 370.089 892.919 369.567C892.901 369.538 892.883 369.508 892.867 369.477L863.948 316.899C862.741 317.73 861.16 318.739 859.406 319.73C856.397 321.43 852.663 323.203 849.275 323.887C847.582 324.228 845.804 324.334 844.187 323.886C842.485 323.414 841.04 322.345 840.17 320.564C839.344 318.871 839.123 316.715 839.392 314.155C839.662 311.576 840.447 308.413 841.819 304.569C845.167 295.189 849.112 289.127 853.454 285.59C857.875 281.988 862.575 281.115 867.045 281.865C871.424 282.6 875.487 284.87 878.871 287.379C882.273 289.902 885.123 292.769 887.075 294.865C887.083 294.874 887.091 294.882 887.099 294.891C887.111 294.905 887.124 294.919 887.136 294.933L927.54 342.475L957.738 316.104C961.972 311.533 966.133 307.414 970.08 303.766C978.282 296.188 985.586 290.626 990.735 287.295L987.869 273.168C975.908 274.571 965.276 266.825 956.932 256.915C950.009 248.692 944.339 238.619 940.383 229.836C940.395 230.252 940.4 230.673 940.399 231.098C940.373 239.208 937.881 248.995 928.529 255.947C923.408 259.754 918.466 260.881 913.924 260.23C909.451 259.589 905.609 257.257 902.539 254.59C899.461 251.916 897.043 248.803 895.404 246.388C894.58 245.175 893.944 244.123 893.511 243.37C893.295 242.994 893.129 242.691 893.015 242.479C892.958 242.373 892.914 242.289 892.884 242.231L892.848 242.161L892.835 242.135L892.833 242.132C892.833 242.132 892.833 242.131 894.633 241.224L892.833 242.132C892.393 241.258 892.643 240.192 893.428 239.607C894.211 239.024 895.298 239.085 896.01 239.751L896.014 239.754L896.017 239.757L896.018 239.758C896.029 239.768 896.049 239.786 896.078 239.811C896.136 239.862 896.232 239.943 896.361 240.045C896.62 240.249 897.011 240.536 897.512 240.842C898.524 241.461 899.925 242.122 901.555 242.383C903.158 242.64 905.012 242.518 907.018 241.538C909.042 240.55 911.349 238.626 913.723 235.065C915.777 231.983 915.946 227.761 914.794 222.093C913.919 217.788 912.366 213.001 910.642 207.688C910.1 206.017 909.541 204.294 908.981 202.518C904.364 187.876 899.87 170.176 906.447 151.886C909.07 144.59 912.587 139.796 916.852 137.13C921.156 134.44 925.93 134.097 930.659 135.12C939.501 137.032 948.692 143.83 955.987 150.124ZM952.264 152.248C936.731 161.646 929.544 173.177 927.498 184.681C925.363 196.682 928.883 208.319 933.69 217C933.731 217.074 933.772 217.149 933.814 217.222C933.84 217.276 933.876 217.352 933.92 217.452C934.022 217.686 934.148 218.002 934.289 218.396C934.571 219.184 934.9 220.246 935.211 221.521C935.835 224.074 936.378 227.424 936.366 231.085C936.343 238.401 934.125 246.762 926.124 252.711C921.754 255.959 917.864 256.721 914.496 256.239C911.06 255.746 907.914 253.919 905.184 251.546C903.268 249.882 901.614 247.998 900.27 246.245C900.482 246.289 900.698 246.329 900.917 246.365C903.247 246.738 905.954 246.545 908.787 245.162C911.602 243.787 914.411 241.301 917.078 237.302C920.063 232.823 919.95 227.215 918.745 221.29C917.82 216.74 916.166 211.643 914.424 206.274C913.893 204.64 913.355 202.981 912.827 201.305C908.229 186.723 904.155 170.176 910.241 153.25C912.683 146.459 915.755 142.572 918.99 140.55C922.187 138.551 925.825 138.199 929.807 139.061C937.193 140.658 945.25 146.314 952.264 152.248ZM935.621 211.929C932.003 204.263 929.781 194.874 931.468 185.387C933.375 174.665 940.334 163.483 956.708 154.328C961.727 151.521 967.634 148.905 974.553 146.557C980.265 144.619 985.449 143.362 990.148 142.685C996.335 141.795 1001.67 141.913 1006.26 142.801C1020.81 145.613 1028.55 156.321 1032.17 169.19C1034.52 177.519 1035.09 186.623 1034.64 194.724C1034.47 194.526 1034.3 194.337 1034.12 194.155C1032.32 192.326 1030.16 191.453 1027.97 191.212C1023.79 190.753 1019.51 192.59 1016.85 194.309C1013.99 195.712 1009.48 196.228 1003.74 195.934C998.009 195.64 991.347 194.557 984.474 193.037C970.732 189.996 956.369 185.254 947.353 181.815C946.748 181.584 946.069 181.658 945.528 182.013C938.836 186.404 936.28 194.387 935.602 202.027C935.305 205.379 935.359 208.765 935.621 211.929ZM941.257 221.437C940.063 216.825 938.99 209.472 939.619 202.383C940.223 195.568 942.35 189.46 946.923 185.964C956.11 189.415 970.124 193.991 983.603 196.974C990.591 198.52 997.493 199.651 1003.53 199.961C1008.42 200.211 1012.95 199.939 1016.53 198.772C1018.24 205.218 1019.56 214.228 1019.07 223.794C1018.29 239.075 1012.93 255.411 997.632 265.285C994.681 267.191 991.82 268.345 989.064 268.899C978.578 271.005 968.597 264.509 960.017 254.318C951.545 244.256 944.944 231.158 941.257 221.437ZM1020.23 196.997C1022.39 195.837 1025.12 194.956 1027.53 195.221C1028.92 195.373 1030.18 195.899 1031.24 196.981C1032.33 198.084 1033.34 199.901 1033.93 202.855C1035.09 208.551 1033.18 212.827 1030.26 215.964C1028.16 218.231 1025.53 219.886 1023.2 220.947C1023.33 211.724 1021.95 203.192 1020.23 196.997ZM1021.49 236.148C1022.77 242.053 1024.32 248.504 1025.99 254.436C1027.45 259.615 1029.02 264.456 1030.62 268.209C1031.42 270.082 1032.26 271.742 1033.12 273.054C1033.94 274.306 1034.95 275.505 1036.21 276.102C1036.83 276.398 1037.58 276.575 1038.31 276.699C1039.06 276.829 1039.94 276.923 1040.91 276.998C1042.77 277.142 1045.09 277.225 1047.73 277.318L1048.05 277.33C1052.82 277.5 1058.69 277.719 1065.13 278.384C1057.72 288.882 1045.28 301.692 1029.96 309.008C1013.96 316.648 994.819 318.317 974.686 305.021C982.612 297.874 989.488 292.796 994.049 289.968C994.766 289.524 995.131 288.68 994.963 287.854L991.823 272.375C994.478 271.617 997.147 270.398 999.819 268.673C1012.44 260.527 1018.77 248.435 1021.49 236.148ZM971.634 307.83C993.41 322.616 1014.39 320.909 1031.7 312.647C1048.69 304.535 1062.14 290.126 1069.65 278.925C1087.29 281.44 1101.77 290.193 1122.5 306.637C1124.07 308.973 1126.95 314.508 1129.48 321.857C1132.07 329.394 1134.23 338.689 1134.25 348.202L1121.02 429.857C1120.69 429.922 1117.44 429.396 1116.97 429.466C1115.7 429.657 1098.6 429.456 1096.5 429.649C1092.31 430.036 1058.38 429.102 1051.73 429.466C1069.07 428.899 1038.44 430.194 1051.73 429.466C1020.01 430.503 987.771 429.354 978.394 429.466L978.394 356.187C978.394 355.904 978.334 355.625 978.219 355.366L961.529 317.949C964.982 314.263 968.376 310.886 971.634 307.83ZM958.415 320.866L973.88 355.537C969.112 359.199 957.224 369.153 937.95 387.316C932.87 392.103 928.337 393.799 924.368 393.775C920.362 393.751 916.563 391.973 912.981 389.089C906.362 383.759 901.094 375.173 897.368 369.103C897.024 368.542 896.693 368.002 896.375 367.488L867.163 314.377C870.123 311.831 872.981 309.177 875.516 306.685C876.31 305.904 876.321 304.628 875.541 303.834C874.76 303.039 873.483 303.029 872.689 303.809C869.86 306.591 866.622 309.574 863.306 312.365C862.592 312.966 860.309 314.588 857.422 316.219C854.523 317.857 851.234 319.378 848.478 319.934C847.101 320.212 846.028 320.211 845.263 320C844.583 319.811 844.117 319.455 843.794 318.794C843.428 318.046 843.175 316.743 843.402 314.576C843.627 312.428 844.306 309.596 845.617 305.925C848.838 296.899 852.456 291.604 856.001 288.716C859.467 285.892 862.979 285.271 866.378 285.841C869.87 286.427 873.334 288.293 876.469 290.618C879.568 292.916 882.215 295.565 884.093 297.58L925.737 346.581L929.951 352.438C930.602 353.342 931.861 353.547 932.765 352.897C933.669 352.246 933.875 350.987 933.224 350.083L930.035 345.649L958.415 320.866ZM1039.89 166.075C1041.51 164.378 1043.1 162.442 1044.35 160.413C1046.75 156.527 1048.41 151.404 1044.99 147.209C1043.29 145.125 1041.11 142.559 1038.74 140.256C1036.96 138.524 1035 136.853 1032.99 135.661C1036.63 128.475 1042.19 122.185 1048.63 120.098C1052.04 118.996 1055.77 119.032 1059.8 120.818C1063.88 122.625 1068.36 126.267 1073.06 132.553C1084.86 148.305 1087.01 161.44 1086.4 172.655C1086.11 177.913 1085.23 182.767 1084.38 187.397C1084.31 187.763 1084.24 188.128 1084.18 188.492C1083.28 193.381 1082.48 198.126 1082.75 202.576C1083.12 208.828 1083.83 214.157 1084.88 218.478C1085.92 222.766 1087.35 226.232 1089.3 228.611C1091.32 231.075 1093.93 232.398 1097.04 232.149C1098.23 232.053 1099.45 231.728 1100.68 231.199C1095.22 242.712 1087.48 247.502 1081.11 247.746C1073.91 248.021 1067.33 242.534 1066.61 232.015C1064.57 202.247 1060.27 185.175 1054.55 175.901C1051.65 171.201 1048.31 168.391 1044.63 167.035C1043.06 166.457 1041.48 166.161 1039.89 166.075ZM1035.13 165.114C1037.17 163.219 1039.37 160.8 1040.92 158.296C1043.14 154.69 1043.52 151.794 1041.86 149.756C1040.2 147.715 1038.13 145.288 1035.93 143.145C1033.69 140.969 1031.48 139.233 1029.54 138.412C1027.85 137.697 1026.75 137.812 1025.94 138.41C1024.97 139.124 1023.8 140.931 1023.07 145.005C1023 145.383 1022.83 145.717 1022.6 145.984C1028.62 150.919 1032.62 157.717 1035.13 165.114Z" fill="black"/>
<path fill-rule="evenodd" clip-rule="evenodd" d="M955.987 150.124C960.965 147.445 966.694 144.966 973.257 142.739C979.167 140.733 984.593 139.411 989.574 138.694C996.132 137.75 1001.93 137.855 1007.03 138.842C1011.71 139.747 1015.76 141.381 1019.24 143.569C1020.05 139.573 1021.43 136.721 1023.55 135.161C1025.35 133.833 1027.36 133.668 1029.26 134.097C1033.14 126.337 1039.41 118.846 1047.39 116.262C1051.73 114.856 1056.49 114.94 1061.44 117.132C1066.34 119.304 1071.32 123.498 1076.29 130.137C1088.69 146.697 1091.08 160.779 1090.43 172.873C1090.13 178.399 1089.19 183.493 1088.35 188.091C1088.28 188.469 1088.21 188.844 1088.14 189.215C1087.24 194.173 1086.54 198.446 1086.77 202.333C1087.14 208.445 1087.82 213.516 1088.8 217.523C1089.78 221.563 1091.03 224.354 1092.42 226.056C1093.75 227.673 1095.14 228.256 1096.71 228.13C1098.45 227.991 1100.74 226.963 1103.63 224.555C1104.32 223.976 1105.32 223.931 1106.06 224.444C1106.81 224.958 1107.12 225.904 1106.83 226.759C1101.13 243.323 1090.91 251.406 1081.26 251.775C1071.46 252.15 1063.42 244.532 1062.59 232.29C1060.55 202.582 1056.28 186.387 1051.12 178.019C1048.58 173.899 1045.89 171.795 1043.24 170.819C1041.16 170.055 1038.96 169.926 1036.62 170.236C1039.31 181.214 1039.23 193.058 1037.95 202.399C1039.26 209.413 1036.8 214.852 1033.22 218.709C1030.23 221.923 1026.46 224.059 1023.39 225.24C1024.85 232.969 1027.2 243.853 1029.87 253.343C1031.31 258.456 1032.83 263.106 1034.33 266.624C1035.08 268.386 1035.81 269.806 1036.49 270.841C1037.21 271.937 1037.72 272.353 1037.94 272.46C1038.06 272.517 1038.37 272.62 1038.99 272.725C1039.57 272.824 1040.31 272.907 1041.22 272.978C1042.99 273.115 1045.24 273.195 1047.93 273.291L1048.19 273.3C1053.76 273.499 1060.99 273.768 1068.91 274.758C1088.35 277.189 1103.8 286.634 1125.25 303.668C1125.4 303.789 1125.53 303.931 1125.64 304.091C1127.45 306.678 1130.6 312.714 1133.29 320.546C1135.99 328.404 1138.29 338.22 1138.29 348.367C1138.29 348.478 1138.28 348.589 1138.26 348.698L1127 429.857C1126.89 430.511 1125.85 429.575 1125.25 429.857C1124.5 430.207 1123.78 429.309 1122.5 429.5C1121.11 429.707 1118.63 429.304 1116.5 429.5C1112.23 429.893 1109.17 429.135 1102.5 429.5C1089.16 430.23 1069.08 428.016 1051.73 428.584C1017.05 429.718 981.834 430.448 976.378 430.448C975.843 430.448 975.33 430.235 974.952 429.857C974.574 429.479 974.362 428.966 974.362 428.432L974.362 360.289C968.823 364.734 957.68 374.263 940.715 390.25C935.097 395.545 929.613 397.839 924.343 397.807C919.111 397.776 914.452 395.45 910.452 392.229C903.249 386.429 897.614 377.227 893.947 371.24C893.585 370.649 893.242 370.089 892.919 369.567C892.901 369.538 892.883 369.508 892.867 369.477L863.948 316.899C862.741 317.73 861.16 318.739 859.406 319.73C856.397 321.43 852.663 323.203 849.275 323.887C847.582 324.228 845.804 324.334 844.187 323.886C842.485 323.414 841.04 322.345 840.17 320.564C839.344 318.871 839.123 316.715 839.392 314.155C839.662 311.576 840.447 308.413 841.819 304.569C845.167 295.189 849.112 289.127 853.454 285.59C857.875 281.988 862.575 281.115 867.045 281.865C871.424 282.6 875.487 284.87 878.871 287.379C882.273 289.902 885.123 292.769 887.075 294.865C887.083 294.874 887.091 294.882 887.099 294.891C887.111 294.905 887.124 294.919 887.136 294.933L927.54 342.475L957.738 316.104C961.972 311.533 966.133 307.414 970.08 303.766C978.282 296.188 985.586 290.626 990.735 287.295L987.869 273.168C975.908 274.571 965.276 266.825 956.932 256.915C950.009 248.692 944.339 238.619 940.383 229.836C940.395 230.252 940.4 230.673 940.399 231.098C940.373 239.208 937.881 248.995 928.529 255.947C923.408 259.754 918.466 260.881 913.924 260.23C909.451 259.589 905.609 257.257 902.539 254.59C899.461 251.916 897.043 248.803 895.404 246.388C894.58 245.175 893.944 244.123 893.511 243.37C893.295 242.994 893.129 242.691 893.015 242.479C892.958 242.373 892.914 242.289 892.884 242.231L892.848 242.161L892.835 242.135L892.833 242.132C892.833 242.132 892.833 242.131 894.633 241.224L892.833 242.132C892.393 241.258 892.643 240.192 893.428 239.607C894.211 239.024 895.298 239.085 896.01 239.751L896.014 239.754L896.017 239.757L896.018 239.758C896.029 239.768 896.049 239.786 896.078 239.811C896.136 239.862 896.232 239.943 896.361 240.045C896.62 240.249 897.011 240.536 897.512 240.842C898.524 241.461 899.925 242.122 901.555 242.383C903.158 242.64 905.012 242.518 907.018 241.538C909.042 240.55 911.349 238.626 913.723 235.065C915.777 231.983 915.946 227.761 914.794 222.093C913.919 217.788 912.366 213.001 910.642 207.688C910.1 206.017 909.541 204.294 908.981 202.518C904.364 187.876 899.87 170.176 906.447 151.886C909.07 144.59 912.587 139.796 916.852 137.13C921.156 134.44 925.93 134.097 930.659 135.12C939.501 137.032 948.692 143.83 955.987 150.124ZM952.264 152.248C936.731 161.646 929.544 173.177 927.498 184.681C925.363 196.682 928.883 208.319 933.69 217C933.731 217.074 933.772 217.149 933.814 217.222C933.84 217.276 933.876 217.352 933.92 217.452C934.022 217.686 934.148 218.002 934.289 218.396C934.571 219.184 934.9 220.246 935.211 221.521C935.835 224.074 936.378 227.424 936.366 231.085C936.343 238.401 934.125 246.762 926.124 252.711C921.754 255.959 917.864 256.721 914.496 256.239C911.06 255.746 907.914 253.919 905.184 251.546C903.268 249.882 901.614 247.998 900.27 246.245C900.482 246.289 900.698 246.329 900.917 246.365C903.247 246.738 905.954 246.545 908.787 245.162C911.602 243.787 914.411 241.301 917.078 237.302C920.063 232.823 919.95 227.215 918.745 221.29C917.82 216.74 916.166 211.643 914.424 206.274C913.893 204.64 913.355 202.981 912.827 201.305C908.229 186.723 904.155 170.176 910.241 153.25C912.683 146.459 915.755 142.572 918.99 140.55C922.187 138.551 925.825 138.199 929.807 139.061C937.193 140.658 945.25 146.314 952.264 152.248ZM935.621 211.929C932.003 204.263 929.781 194.874 931.468 185.387C933.375 174.665 940.334 163.483 956.708 154.328C961.727 151.521 967.634 148.905 974.553 146.557C980.265 144.619 985.449 143.362 990.148 142.685C996.335 141.795 1001.67 141.913 1006.26 142.801C1020.81 145.613 1028.55 156.321 1032.17 169.19C1034.52 177.519 1035.09 186.623 1034.64 194.724C1034.47 194.526 1034.3 194.337 1034.12 194.155C1032.32 192.326 1030.16 191.453 1027.97 191.212C1023.79 190.753 1019.51 192.59 1016.85 194.309C1013.99 195.712 1009.48 196.228 1003.74 195.934C998.009 195.64 991.347 194.557 984.474 193.037C970.732 189.996 956.369 185.254 947.353 181.815C946.748 181.584 946.069 181.658 945.528 182.013C938.836 186.404 936.28 194.387 935.602 202.027C935.305 205.379 935.359 208.765 935.621 211.929ZM941.257 221.437C940.063 216.825 938.99 209.472 939.619 202.383C940.223 195.568 942.35 189.46 946.923 185.964C956.11 189.415 970.124 193.991 983.603 196.974C990.591 198.52 997.493 199.651 1003.53 199.961C1008.42 200.211 1012.95 199.939 1016.53 198.772C1018.24 205.218 1019.56 214.228 1019.07 223.794C1018.29 239.075 1012.93 255.411 997.632 265.285C994.681 267.191 991.82 268.345 989.064 268.899C978.578 271.005 968.597 264.509 960.017 254.318C951.545 244.256 944.944 231.158 941.257 221.437ZM1020.23 196.997C1022.39 195.837 1025.12 194.956 1027.53 195.221C1028.92 195.373 1030.18 195.899 1031.24 196.981C1032.33 198.084 1033.34 199.901 1033.93 202.855C1035.09 208.551 1033.18 212.827 1030.26 215.964C1028.16 218.231 1025.53 219.886 1023.2 220.947C1023.33 211.724 1021.95 203.192 1020.23 196.997ZM1021.49 236.148C1022.77 242.053 1024.32 248.504 1025.99 254.436C1027.45 259.615 1029.02 264.456 1030.62 268.209C1031.42 270.082 1032.26 271.742 1033.12 273.054C1033.94 274.306 1034.95 275.505 1036.21 276.102C1036.83 276.398 1037.58 276.575 1038.31 276.699C1039.06 276.829 1039.94 276.923 1040.91 276.998C1042.77 277.142 1045.09 277.225 1047.73 277.318L1048.05 277.33C1052.82 277.5 1058.69 277.719 1065.13 278.384C1057.72 288.882 1045.28 301.692 1029.96 309.008C1013.96 316.648 994.819 318.317 974.686 305.021C982.612 297.874 989.488 292.796 994.049 289.968C994.766 289.524 995.131 288.68 994.963 287.854L991.823 272.375C994.478 271.617 997.147 270.398 999.819 268.673C1012.44 260.527 1018.77 248.435 1021.49 236.148ZM971.634 307.83C993.41 322.616 1014.39 320.909 1031.7 312.647C1048.69 304.535 1062.14 290.126 1069.65 278.925C1087.29 281.44 1101.77 290.193 1122.5 306.637C1124.07 308.973 1126.95 314.508 1129.48 321.857C1132.07 329.394 1134.23 338.689 1134.25 348.202L1121.02 429.857C1120.69 429.922 1117.44 429.396 1116.97 429.466C1115.7 429.657 1098.6 429.456 1096.5 429.649C1092.31 430.036 1058.38 429.102 1051.73 429.466C1069.07 428.899 1038.44 430.194 1051.73 429.466C1020.01 430.503 987.771 429.354 978.394 429.466L978.394 356.187C978.394 355.904 978.334 355.625 978.219 355.366L961.529 317.949C964.982 314.263 968.376 310.886 971.634 307.83ZM958.415 320.866L973.88 355.537C969.112 359.199 957.224 369.153 937.95 387.316C932.87 392.103 928.337 393.799 924.368 393.775C920.362 393.751 916.563 391.973 912.981 389.089C906.362 383.759 901.094 375.173 897.368 369.103C897.024 368.542 896.693 368.002 896.375 367.488L867.163 314.377C870.123 311.831 872.981 309.177 875.516 306.685C876.31 305.904 876.321 304.628 875.541 303.834C874.76 303.039 873.483 303.029 872.689 303.809C869.86 306.591 866.622 309.574 863.306 312.365C862.592 312.966 860.309 314.588 857.422 316.219C854.523 317.857 851.234 319.378 848.478 319.934C847.101 320.212 846.028 320.211 845.263 320C844.583 319.811 844.117 319.455 843.794 318.794C843.428 318.046 843.175 316.743 843.402 314.576C843.627 312.428 844.306 309.596 845.617 305.925C848.838 296.899 852.456 291.604 856.001 288.716C859.467 285.892 862.979 285.271 866.378 285.841C869.87 286.427 873.334 288.293 876.469 290.618C879.568 292.916 882.215 295.565 884.093 297.58L925.737 346.581L929.951 352.438C930.602 353.342 931.861 353.547 932.765 352.897C933.669 352.246 933.875 350.987 933.224 350.083L930.035 345.649L958.415 320.866ZM1039.89 166.075C1041.51 164.378 1043.1 162.442 1044.35 160.413C1046.75 156.527 1048.41 151.404 1044.99 147.209C1043.29 145.125 1041.11 142.559 1038.74 140.256C1036.96 138.524 1035 136.853 1032.99 135.661C1036.63 128.475 1042.19 122.185 1048.63 120.098C1052.04 118.996 1055.77 119.032 1059.8 120.818C1063.88 122.625 1068.36 126.267 1073.06 132.553C1084.86 148.305 1087.01 161.44 1086.4 172.655C1086.11 177.913 1085.23 182.767 1084.38 187.397C1084.31 187.763 1084.24 188.128 1084.18 188.492C1083.28 193.381 1082.48 198.126 1082.75 202.576C1083.12 208.828 1083.83 214.157 1084.88 218.478C1085.92 222.766 1087.35 226.232 1089.3 228.611C1091.32 231.075 1093.93 232.398 1097.04 232.149C1098.23 232.053 1099.45 231.728 1100.68 231.199C1095.22 242.712 1087.48 247.502 1081.11 247.746C1073.91 248.021 1067.33 242.534 1066.61 232.015C1064.57 202.247 1060.27 185.175 1054.55 175.901C1051.65 171.201 1048.31 168.391 1044.63 167.035C1043.06 166.457 1041.48 166.161 1039.89 166.075ZM1035.13 165.114C1037.17 163.219 1039.37 160.8 1040.92 158.296C1043.14 154.69 1043.52 151.794 1041.86 149.756C1040.2 147.715 1038.13 145.288 1035.93 143.145C1033.69 140.969 1031.48 139.233 1029.54 138.412C1027.85 137.697 1026.75 137.812 1025.94 138.41C1024.97 139.124 1023.8 140.931 1023.07 145.005C1023 145.383 1022.83 145.717 1022.6 145.984C1028.62 150.919 1032.62 157.717 1035.13 165.114Z" fill="black"/>
<path d="M970.947 259C961.943 259 965.838 264.036 965.838 284.647C965.005 315.917 975.345 350.402 1001.33 387.519C1011.79 402.456 1039.54 402.132 1059.23 399.837C1126.16 392.036 1136.43 360.009 1136.43 348.101C1136.43 336.194 1136.01 331.677 1131.08 321.412C1126.16 311.147 1048.56 371.095 1039.54 362.893C998.983 326.016 994.939 288.855 994.939 288.855C991.888 284.647 994.239 259 970.947 259Z" fill="#CBA692"/>
<path fill-rule="evenodd" clip-rule="evenodd" d="M985.453 261.548C982 258.798 977.378 257.091 971.208 257.091C968.909 257.091 966.87 257.384 965.445 258.64C963.967 259.942 963.594 261.871 963.514 263.879C963.444 265.647 963.598 267.909 963.784 270.633C963.812 271.05 963.842 271.478 963.871 271.916C964.094 275.266 964.334 279.393 964.335 284.478C963.496 316.191 973.995 351.032 1000.15 388.386C1005.8 396.464 1015.97 400.221 1026.84 401.742C1037.76 403.272 1049.79 402.599 1059.69 401.444C1093.41 397.514 1113.12 387.451 1124.41 376.638C1135.7 365.822 1138.45 354.372 1138.45 347.956C1138.45 342.01 1138.35 337.754 1137.6 333.675C1136.84 329.564 1135.44 325.712 1132.94 320.503C1132.31 319.191 1131.11 318.573 1129.87 318.386C1128.69 318.209 1127.34 318.383 1125.95 318.725C1123.13 319.415 1119.52 320.958 1115.44 322.992C1107.39 327.012 1097.09 333.192 1086.71 339.414L1086.2 339.721C1075.61 346.071 1064.98 352.435 1056.43 356.705C1052.15 358.844 1048.48 360.412 1045.65 361.2C1044.23 361.594 1043.12 361.767 1042.29 361.757C1041.44 361.745 1041.11 361.55 1040.99 361.442C1020.91 343.188 1009.9 324.89 1003.91 311.193C1000.91 304.342 999.169 298.639 998.178 294.666C997.682 292.679 997.374 291.125 997.191 290.076C997.1 289.551 997.04 289.153 997.003 288.891C996.984 288.76 996.972 288.662 996.964 288.6L996.956 288.533L996.954 288.519M996.954 288.518C996.921 288.213 996.808 287.923 996.629 287.675C996.468 287.454 996.234 286.898 995.961 285.795C995.729 284.855 995.512 283.72 995.259 282.393C995.231 282.244 995.202 282.093 995.173 281.939C994.601 278.946 993.856 275.2 992.438 271.563C991.017 267.918 988.88 264.276 985.453 261.548M993.5 289.321C993.503 289.341 993.506 289.361 993.509 289.382C993.551 289.682 993.617 290.118 993.715 290.682C993.912 291.809 994.237 293.446 994.754 295.52C995.788 299.666 997.592 305.558 1000.68 312.607C1006.85 326.71 1018.13 345.43 1038.62 364.053C1039.62 364.97 1040.95 365.268 1042.24 365.284C1043.54 365.302 1045.02 365.038 1046.6 364.598C1049.76 363.718 1053.67 362.028 1058.01 359.861C1066.7 355.518 1077.46 349.074 1088.02 342.746L1088.43 342.497C1098.88 336.23 1109.09 330.108 1117.02 326.149C1121.05 324.136 1124.38 322.743 1126.79 322.151C1128 321.853 1128.83 321.799 1129.34 321.875C1129.58 321.911 1129.69 321.967 1129.72 321.989C1129.74 322.001 1129.74 322.005 1129.75 322.03C1132.18 327.087 1133.45 330.626 1134.13 334.315C1134.82 338.038 1134.92 341.995 1134.92 347.956C1134.92 353.447 1132.54 363.964 1121.97 374.09C1111.39 384.218 1092.49 394.069 1059.28 397.94C1049.5 399.08 1037.81 399.717 1027.32 398.248C1016.77 396.77 1007.84 393.221 1003.04 386.362C977.223 349.491 967.042 315.37 967.862 284.548C967.863 284.533 967.863 284.517 967.863 284.501C967.863 279.292 967.617 275.068 967.391 271.682C967.361 271.234 967.332 270.803 967.304 270.389C967.116 267.621 966.978 265.581 967.04 264.019C967.112 262.192 967.453 261.573 967.778 261.287C968.154 260.955 969.005 260.619 971.208 260.619C976.684 260.619 980.503 262.117 983.255 264.308C986.034 266.52 987.867 269.553 989.151 272.845C990.438 276.146 991.134 279.601 991.707 282.601C991.737 282.756 991.766 282.911 991.795 283.064C992.044 284.367 992.279 285.603 992.536 286.643C992.766 287.571 993.056 288.542 993.5 289.321Z" fill="black"/>
<path fill-rule="evenodd" clip-rule="evenodd" d="M974.959 218.179C974.627 219.095 975.101 220.106 976.017 220.438L980.282 221.982C981.198 222.314 982.21 221.84 982.541 220.924C982.873 220.008 982.399 218.996 981.483 218.664L977.218 217.12C976.302 216.789 975.291 217.262 974.959 218.179ZM947.17 228.488C946.619 229.291 946.822 230.389 947.625 230.941L952.217 234.094C953.02 234.646 954.118 234.442 954.67 233.639C955.221 232.836 955.017 231.738 954.214 231.186L949.623 228.032C948.82 227.481 947.722 227.685 947.17 228.488ZM963.77 235.699C963.694 236.67 964.419 237.519 965.391 237.595L977.311 238.528C978.283 238.604 979.132 237.878 979.208 236.907C979.284 235.936 978.558 235.087 977.587 235.011L965.666 234.077C964.695 234.001 963.846 234.727 963.77 235.699ZM989.497 240.185C988.525 240.258 987.798 241.106 987.871 242.077C988.244 246.978 986.817 249.058 985.463 249.965C983.97 250.964 981.942 250.976 980.455 250.575C979.515 250.321 978.547 250.878 978.293 251.818C978.039 252.759 978.596 253.727 979.537 253.981C981.596 254.537 984.786 254.663 987.425 252.897C990.202 251.038 991.82 247.472 991.39 241.81C991.316 240.839 990.468 240.111 989.497 240.185Z" fill="black"/>
<path d="M888.733 264.342C889.509 262.864 888.94 261.036 887.462 260.26V260.26C885.983 259.483 884.156 260.052 883.379 261.531L842.67 339.064C841.893 340.543 842.463 342.371 843.941 343.147V343.147C845.419 343.923 847.247 343.354 848.023 341.875L888.733 264.342Z" fill="black"/>
<circle cx="1029.5" cy="209.5" r="12.5" fill="#4285F4" fill-opacity="0.2"/>
<path fill-rule="evenodd" clip-rule="evenodd" d="M1032.42 211.706C1033.09 210.691 1033.53 209.494 1033.6 208.302C1033.77 205.196 1031.68 202.551 1028.92 202.394C1026.17 202.238 1023.79 204.629 1023.61 207.735C1023.48 210.148 1024.52 212.739 1026.28 213.847C1025.99 214.778 1025.59 215.673 1025.09 216.512L1023.53 219.117C1023.24 219.602 1023.42 220.232 1023.93 220.481C1024.9 220.956 1026.06 220.661 1026.69 219.784L1032.17 212.057C1032.24 211.964 1032.31 211.869 1032.38 211.772L1032.42 211.707L1032.42 211.706Z" fill="white"/>
<rect x="-4" y="555" width="411" height="4" fill="black"/>
<g clip-path="url(#clip1_87_4)">
<path d="M1235.89 64.4341C1235.87 64.352 1235.86 64.2712 1235.85 64.19C1235.5 62.1012 1234.83 60.0805 1233.85 58.2032C1232.89 56.3637 1231.65 54.6833 1230.18 53.2216C1229.11 52.1528 1227.92 51.2084 1226.63 50.4061C1226.64 50.3932 1226.64 50.3798 1226.65 50.3669C1227.06 49.6693 1227.46 48.9723 1227.86 48.2748C1228.54 47.1044 1229.22 45.9339 1229.9 44.7636C1230.06 44.4792 1230.15 44.1558 1230.15 43.827C1230.15 43.4982 1230.06 43.176 1229.89 42.8938C1229.73 42.6321 1229.51 42.4136 1229.25 42.2584C1229.01 42.1168 1228.74 42.0307 1228.47 42.0064C1228.25 41.9887 1228.04 42.0073 1227.84 42.0612C1227.6 42.1231 1227.38 42.2304 1227.19 42.3771C1227 42.5238 1226.84 42.707 1226.72 42.9161L1225.87 44.3839L1224.68 46.4273C1224.28 47.1252 1223.87 47.8219 1223.47 48.5197C1223.43 48.5959 1223.38 48.6721 1223.34 48.7488C1223.28 48.7245 1223.21 48.7002 1223.15 48.6767C1220.86 47.8052 1218.44 47.36 1215.99 47.3631C1215.92 47.3631 1215.85 47.3631 1215.78 47.3642C1213.59 47.384 1211.43 47.76 1209.36 48.4775C1209.13 48.5587 1208.9 48.6445 1208.67 48.7342C1208.63 48.663 1208.59 48.5918 1208.55 48.5203C1208.15 47.823 1207.74 47.1258 1207.34 46.4285C1206.66 45.258 1205.98 44.0875 1205.3 42.917C1205.13 42.6146 1204.87 42.3685 1204.56 42.2073C1204.25 42.0462 1203.9 41.9768 1203.55 42.0073C1203.28 42.0308 1203.01 42.1169 1202.77 42.2593C1202.36 42.5046 1202.06 42.9026 1201.93 43.3676C1201.84 43.7088 1201.85 44.0688 1201.96 44.405C1202 44.528 1202.05 44.6481 1202.12 44.7641C1202.4 45.2531 1202.69 45.7429 1202.97 46.2319C1203.37 46.9131 1203.76 47.5942 1204.16 48.2754C1204.56 48.9729 1204.96 49.6699 1205.37 50.3675C1205.37 50.3733 1205.37 50.3792 1205.38 50.385C1204.08 51.1922 1202.88 52.1443 1201.79 53.223C1200.98 54.0258 1200.25 54.8951 1199.58 55.8217C1199.04 56.5809 1198.55 57.3772 1198.12 58.2047C1197.38 59.6306 1196.81 61.1407 1196.43 62.7026C1196.31 63.1951 1196.21 63.6918 1196.12 64.1918C1196.06 64.5652 1196.01 64.9404 1195.97 65.3168H1236C1235.97 65.0224 1235.93 64.7286 1235.89 64.4358L1235.89 64.4341Z" fill="#34A853"/>
<path d="M1226.4 59.7828C1227.2 59.2496 1227.31 58.0162 1226.66 57.0274C1226 56.0389 1224.82 55.6701 1224.02 56.2033C1223.22 56.7365 1223.1 57.9699 1223.76 58.9584C1224.41 59.9471 1225.6 60.316 1226.4 59.7828ZM1208.25 58.9619C1208.91 57.9734 1208.79 56.7397 1207.99 56.2065C1207.19 55.6733 1206 56.0425 1205.35 57.0309C1204.69 58.0194 1204.81 59.2531 1205.61 59.7863C1206.41 60.3195 1207.59 59.9504 1208.25 58.9619ZM1176.17 57.8211C1176.17 55.1351 1178.11 53.0158 1180.56 53.0158C1183 53.0158 1184.79 55.0754 1184.79 57.8211C1184.79 60.5671 1182.97 62.6861 1180.56 62.6861C1178.14 62.6861 1176.17 60.5372 1176.17 57.8211ZM1167.76 65.3126H1171.19V50.3893H1167.76L1167.76 65.3126ZM1167.22 45.4053C1167.22 46.6885 1168.27 47.7333 1169.49 47.7333C1170.71 47.7333 1171.73 46.6885 1171.73 45.4051C1171.73 44.2112 1170.71 43.1967 1169.49 43.1967C1168.27 43.1967 1167.22 44.2115 1167.22 45.4053ZM1153.77 57.7912C1153.77 55.1047 1155.74 53.0158 1158.27 53.0158C1160.81 53.0158 1162.78 55.1047 1162.78 57.7912C1162.78 60.4771 1160.78 62.6858 1158.27 62.6858C1155.77 62.6858 1153.77 60.507 1153.77 57.7912ZM1150.28 57.7912C1150.28 62.2677 1153.8 65.7898 1158.27 65.7898C1162.75 65.7898 1166.27 62.268 1166.27 57.7912C1166.27 53.314 1162.81 49.9115 1158.27 49.9115C1153.74 49.9115 1150.28 53.3439 1150.28 57.7912ZM1141 65.3123H1144.43V57.4929C1144.43 54.3889 1146.07 53.0158 1148.82 53.0158C1149.32 53.0158 1149.71 53.0457 1150.07 53.1353V50.1207C1149.71 50.0014 1149.09 49.9118 1148.4 49.9118C1143.75 49.9118 1141 52.8368 1141 57.4929V65.3123ZM1127.25 57.8211C1127.25 55.1345 1129.19 53.0155 1131.64 53.0155C1134.08 53.0155 1135.87 55.0751 1135.87 57.8208C1135.87 60.5668 1134.05 62.6858 1131.64 62.6858C1129.22 62.6858 1127.25 60.5372 1127.25 57.8211ZM1123.76 57.8208C1123.76 62.1482 1127.22 65.7895 1131.31 65.7895C1133.01 65.7895 1134.56 65.1031 1135.48 63.969H1135.63V65.312H1139.06V42.0028H1135.63V51.6131H1135.48C1134.59 50.539 1133.04 49.9121 1131.31 49.9121C1127.19 49.9121 1123.76 53.5235 1123.76 57.8214M1108.73 65.3126H1112.16V56.5675C1112.16 54.4786 1113.56 53.0158 1115.5 53.0158C1117.44 53.0158 1118.84 54.4783 1118.84 56.5677V65.3126H1122.27V56.5675C1122.27 52.9264 1119.38 49.9118 1115.5 49.9118C1111.62 49.9118 1108.73 52.9264 1108.73 56.5677V65.3126ZM1092.98 56.3586L1096.68 45.7636H1096.86L1100.56 56.3589L1092.98 56.3586ZM1086 65.3126H1089.88L1091.82 59.7611H1101.72L1103.66 65.3126H1107.54L1098.92 42.0028H1094.62L1086 65.3126ZM1180.23 65.7901C1181.93 65.7901 1183.48 65.1037 1184.4 63.9696H1184.55V65.3126H1187.98V42.0028H1184.55V51.6131H1184.4C1183.51 50.539 1181.96 49.9121 1180.23 49.9121C1176.11 49.9121 1172.68 53.5235 1172.68 57.8214C1172.68 62.1192 1176.14 65.7904 1180.23 65.7904" fill="#373C4A"/>
</g>
<path fill-rule="evenodd" clip-rule="evenodd" d="M422.385 58C439.845 58 454 72.1547 454 89.6154C454 106.249 441.153 119.884 424.842 121.137C423.795 121.217 422.859 121.834 422.375 122.77C417.409 132.369 407.392 138.923 395.848 138.923C393.711 138.923 391.628 138.699 389.621 138.273C392.941 134.432 395.413 129.833 396.742 124.769C397.233 122.899 395.862 121.23 394.144 121.042C378.317 119.315 366 105.902 366 89.6154C366 72.1547 380.155 58 397.615 58H422.385ZM456 89.6154C456 71.0501 440.95 56 422.385 56H397.615C379.05 56 364 71.0501 364 89.6154C364 106.934 377.097 121.194 393.927 123.031C394.533 123.097 394.962 123.671 394.807 124.261C393.419 129.551 390.705 134.303 387.041 138.14C386.518 138.688 386.727 139.607 387.457 139.806C390.131 140.534 392.944 140.923 395.848 140.923C408.169 140.923 418.855 133.926 424.151 123.689C424.316 123.37 424.637 123.158 424.995 123.131C442.34 121.799 456 107.302 456 89.6154Z" fill="black"/>
<path fill-rule="evenodd" clip-rule="evenodd" d="M422.385 58C439.845 58 454 72.1547 454 89.6154C454 106.249 441.153 119.884 424.842 121.137C423.795 121.217 422.859 121.834 422.375 122.77C417.409 132.369 407.392 138.923 395.848 138.923C393.711 138.923 391.628 138.699 389.621 138.273C392.941 134.432 395.413 129.833 396.742 124.769C397.233 122.899 395.862 121.23 394.144 121.042C378.317 119.315 366 105.902 366 89.6154C366 72.1547 380.155 58 397.615 58H422.385ZM456 89.6154C456 71.0501 440.95 56 422.385 56H397.615C379.05 56 364 71.0501 364 89.6154C364 106.934 377.097 121.194 393.927 123.031C394.533 123.097 394.962 123.671 394.807 124.261C393.419 129.551 390.705 134.303 387.041 138.14C386.518 138.688 386.727 139.607 387.457 139.806C390.131 140.534 392.944 140.923 395.848 140.923C408.169 140.923 418.855 133.926 424.151 123.689C424.316 123.37 424.637 123.158 424.995 123.131C442.34 121.799 456 107.302 456 89.6154Z" fill="black" fill-opacity="0.2"/>
<path d="M424.842 121.137L424.727 119.641L424.727 119.641L424.842 121.137ZM422.375 122.77L421.043 122.081L422.375 122.77ZM389.621 138.273L388.486 137.292C388.14 137.694 388.031 138.249 388.2 138.751C388.369 139.254 388.791 139.63 389.31 139.741L389.621 138.273ZM396.742 124.769L395.291 124.388L396.742 124.769ZM394.144 121.042L393.981 122.534L394.144 121.042ZM393.927 123.031L393.764 124.522H393.764L393.927 123.031ZM394.807 124.261L396.258 124.642H396.258L394.807 124.261ZM387.041 138.14L388.126 139.176L388.126 139.176L387.041 138.14ZM387.457 139.806L387.063 141.254H387.063L387.457 139.806ZM424.151 123.689L425.484 124.378V124.378L424.151 123.689ZM424.995 123.131L424.88 121.635H424.88L424.995 123.131ZM455.5 89.6154C455.5 71.3263 440.674 56.5 422.385 56.5V59.5C439.017 59.5 452.5 72.9831 452.5 89.6154H455.5ZM424.956 122.632C442.044 121.32 455.5 107.039 455.5 89.6154H452.5C452.5 105.459 440.263 118.448 424.727 119.641L424.956 122.632ZM423.707 123.459C423.952 122.986 424.426 122.673 424.956 122.632L424.727 119.641C423.164 119.761 421.766 120.682 421.043 122.081L423.707 123.459ZM395.848 140.423C407.974 140.423 418.494 133.537 423.707 123.459L421.043 122.081C416.324 131.202 406.81 137.423 395.848 137.423V140.423ZM389.31 139.741C391.419 140.188 393.606 140.423 395.848 140.423V137.423C393.816 137.423 391.838 137.21 389.933 136.806L389.31 139.741ZM395.291 124.388C394.021 129.226 391.66 133.62 388.486 137.292L390.756 139.254C394.222 135.243 396.804 130.44 398.193 125.15L395.291 124.388ZM393.981 122.534C394.885 122.632 395.525 123.497 395.291 124.388L398.193 125.15C398.941 122.301 396.838 119.828 394.306 119.551L393.981 122.534ZM364.5 89.6154C364.5 106.676 377.402 120.724 393.981 122.534L394.306 119.551C379.233 117.906 367.5 105.129 367.5 89.6154H364.5ZM397.615 56.5C379.326 56.5 364.5 71.3263 364.5 89.6154H367.5C367.5 72.9831 380.983 59.5 397.615 59.5V56.5ZM422.385 56.5H397.615V59.5H422.385V56.5ZM422.385 57.5C440.121 57.5 454.5 71.8786 454.5 89.6154H457.5C457.5 70.2217 441.778 54.5 422.385 54.5V57.5ZM397.615 57.5H422.385V54.5H397.615V57.5ZM365.5 89.6154C365.5 71.8786 379.879 57.5 397.615 57.5V54.5C378.222 54.5 362.5 70.2217 362.5 89.6154H365.5ZM394.089 121.54C378.012 119.785 365.5 106.16 365.5 89.6154H362.5C362.5 107.708 376.181 122.603 393.764 124.522L394.089 121.54ZM396.258 124.642C396.665 123.092 395.53 121.697 394.089 121.54L393.764 124.522C393.537 124.497 393.259 124.251 393.357 123.881L396.258 124.642ZM388.126 139.176C391.961 135.159 394.804 130.183 396.258 124.642L393.357 123.881C392.034 128.918 389.448 133.446 385.956 137.105L388.126 139.176ZM387.852 138.359C388.062 138.416 388.199 138.593 388.237 138.752C388.272 138.898 388.235 139.062 388.126 139.176L385.956 137.105C384.741 138.377 385.109 140.721 387.063 141.254L387.852 138.359ZM395.848 139.423C393.078 139.423 390.397 139.053 387.852 138.359L387.063 141.254C389.864 142.016 392.809 142.423 395.848 142.423V139.423ZM422.819 123C417.771 132.759 407.586 139.423 395.848 139.423V142.423C408.751 142.423 419.94 135.094 425.484 124.378L422.819 123ZM424.88 121.635C424.005 121.703 423.223 122.218 422.819 123L425.484 124.378C425.409 124.522 425.268 124.614 425.11 124.627L424.88 121.635ZM454.5 89.6154C454.5 106.512 441.45 120.363 424.88 121.635L425.11 124.627C443.231 123.235 457.5 108.092 457.5 89.6154H454.5Z" fill="black"/>
<g clip-path="url(#clip2_87_4)">
<mask id="mask0_87_4" style="mask-type:luminance" maskUnits="userSpaceOnUse" x="391" y="73" width="35" height="35">
<path d="M391 73H426V108H391V73Z" fill="white"/>
</mask>
<g mask="url(#mask0_87_4)">
<path fill-rule="evenodd" clip-rule="evenodd" d="M423.279 95.2337C426.921 93.1293 426.921 87.8706 423.279 85.764L404.674 75.0081C401.03 72.9015 396.469 75.5331 396.469 79.744V101.256C396.469 105.467 401.03 108.098 404.674 105.99L423.279 95.2337Z" fill="#FF0000"/>
</g>
</g>
<path fill-rule="evenodd" clip-rule="evenodd" d="M1204.19 261.462C1203.74 261.49 1203.31 261.695 1203.01 262.034C1202.7 262.373 1202.54 262.818 1202.56 263.274L1203.32 283.447C1201.95 282.727 1200.39 282.477 1198.87 282.735C1197.35 282.993 1195.96 283.745 1194.91 284.875C1193.87 286.004 1193.22 287.448 1193.08 288.982C1192.93 290.517 1193.3 292.055 1194.12 293.36C1194.94 294.665 1196.16 295.663 1197.61 296.199C1199.05 296.735 1200.64 296.779 1202.11 296.325C1203.58 295.871 1204.86 294.944 1205.75 293.687C1206.65 292.431 1207.1 290.915 1207.04 289.375L1206.4 272.202L1214.91 273.294C1215.16 273.326 1215.41 273.303 1215.66 273.227C1215.9 273.15 1216.12 273.022 1216.31 272.85C1216.5 272.679 1216.64 272.469 1216.74 272.235C1216.84 272 1216.89 271.747 1216.88 271.493L1216.61 264.498C1216.6 264.084 1216.44 263.689 1216.16 263.384C1215.88 263.078 1215.5 262.881 1215.09 262.829L1204.56 261.477C1204.44 261.459 1204.32 261.454 1204.19 261.462Z" fill="#4285F4"/>
<g clip-path="url(#clip3_87_4)">
<path d="M419.359 569.179C410.52 569.179 406.984 563.875 406.984 556.804C406.984 549.733 410.52 544.43 419.359 544.43L429.965 544.43L429.965 569.179H419.359Z" fill="#E0E1E4"/>
<path d="M440.572 551.501H431.733M440.572 562.108H431.733M419.359 569.179C410.52 569.179 406.984 563.875 406.984 556.804C406.984 549.733 410.52 544.43 419.359 544.43L429.965 544.43L429.965 569.179H419.359Z" stroke="black" stroke-width="4"/>
</g>
<path d="M779.981 463.296C788.82 463.296 792.355 468.599 792.357 475.672C792.359 482.745 788.82 488.044 779.983 488.046L769.376 488.046L769.374 463.296L779.981 463.296Z" fill="#E0E1E4" stroke="black" stroke-width="4"/>
<path d="M367 319.146C367 315.154 370.236 311.918 374.228 311.918H540.9C544.892 311.918 548.128 315.154 548.128 319.146V321.156C548.128 325.148 544.892 328.384 540.9 328.384H374.228C370.236 328.384 367 325.148 367 321.156V319.146Z" fill="#E0E1E4"/>
<path fill-rule="evenodd" clip-rule="evenodd" d="M540.9 315.532H374.228C372.232 315.532 370.614 317.15 370.614 319.146V321.156C370.614 323.152 372.232 324.77 374.228 324.77H540.9C542.896 324.77 544.514 323.152 544.514 321.156V319.146C544.514 317.15 542.896 315.532 540.9 315.532ZM374.228 311.918C370.236 311.918 367 315.154 367 319.146V321.156C367 325.148 370.236 328.384 374.228 328.384H540.9C544.892 328.384 548.128 325.148 548.128 321.156V319.146C548.128 315.154 544.892 311.918 540.9 311.918H374.228Z" fill="black"/>
<path d="M448.727 227.105C449.929 224.597 452.464 223 455.246 223H582.763C588.083 223 591.58 228.553 589.282 233.35L552.038 311.105C550.836 313.614 548.301 315.21 545.52 315.21H418.002C412.682 315.21 409.185 309.658 411.483 304.86L448.727 227.105Z" fill="#E0E1E4"/>
<path fill-rule="evenodd" clip-rule="evenodd" d="M582.763 226.614H455.246C453.855 226.614 452.587 227.412 451.986 228.667L414.743 306.421C413.594 308.82 415.342 311.596 418.002 311.596H545.52C546.91 311.596 548.178 310.798 548.779 309.544L586.023 231.789C587.172 229.39 585.423 226.614 582.763 226.614ZM455.246 223C452.464 223 449.929 224.597 448.727 227.105L411.483 304.86C409.185 309.658 412.682 315.21 418.002 315.21H545.52C548.301 315.21 550.836 313.614 552.038 311.105L589.282 233.35C591.58 228.553 588.083 223 582.763 223H455.246Z" fill="black"/>
</g>
<defs>
<clipPath id="clip0_87_4">
<rect width="1280" height="640" fill="white"/>
</clipPath>
<clipPath id="clip1_87_4">
<rect width="150" height="24.0234" fill="white" transform="translate(1086 42)"/>
</clipPath>
<clipPath id="clip2_87_4">
<rect width="35" height="35" fill="white" transform="translate(391 73)"/>
</clipPath>
<clipPath id="clip3_87_4">
<rect width="60" height="60" fill="white" transform="translate(439.426 515) rotate(45)"/>
</clipPath>
</defs>
</svg>
